<svg width="64" height="64" viewBox="0 0 64 64" fill="none" xmlns="http://www.w3.org/2000/svg">
<circle cx="32" cy="32" r="32" fill="#90CAF9"/>
<path d="M42.5 36.2567C42.5 29.8517 37.53 25.5 32 25.5C26.5283 25.5 21.5 29.7583 21.5 36.3267C20.8 36.7233 20.3333 37.47 20.3333 38.3333V40.6667C20.3333 41.95 21.3833 43 22.6667 43C23.3083 43 23.8333 42.475 23.8333 41.8333V36.2217C23.8333 31.7533 27.275 27.845 31.7433 27.7167C32.8369 27.6834 33.926 27.87 34.9462 28.2654C35.9663 28.6608 36.8967 29.2569 37.6822 30.0185C38.4677 30.7801 39.0924 31.6916 39.5191 32.699C39.9459 33.7064 40.1661 34.7893 40.1667 35.8833V44.1667H32C31.3583 44.1667 30.8333 44.6917 30.8333 45.3333C30.8333 45.975 31.3583 46.5 32 46.5H40.1667C41.45 46.5 42.5 45.45 42.5 44.1667V42.7433C43.1883 42.3817 43.6667 41.67 43.6667 40.83V38.1467C43.6667 37.33 43.1883 36.6183 42.5 36.2567V36.2567Z" fill="white"/>
<path d="M28.5 38.3333C29.1443 38.3333 29.6667 37.811 29.6667 37.1667C29.6667 36.5223 29.1443 36 28.5 36C27.8557 36 27.3333 36.5223 27.3333 37.1667C27.3333 37.811 27.8557 38.3333 28.5 38.3333Z" fill="white"/>
<path d="M35.5 38.3333C36.1443 38.3333 36.6667 37.811 36.6667 37.1667C36.6667 36.5223 36.1443 36 35.5 36C34.8557 36 34.3333 36.5223 34.3333 37.1667C34.3333 37.811 34.8557 38.3333 35.5 38.3333Z" fill="white"/>
<path d="M39 34.8683C38.7218 33.2282 37.8723 31.7393 36.6019 30.6653C35.3314 29.5913 33.7219 29.0014 32.0583 29C28.5233 29 24.72 31.9283 25.0233 36.525C26.462 35.9363 27.7326 35.0007 28.7219 33.8017C29.7113 32.6028 30.3885 31.1776 30.6933 29.6533C32.2217 32.7217 35.36 34.8333 39 34.8683Z" fill="white"/>
<path d="M22.2852 20H18.3867V19.2266L20.2266 17.2656C20.4792 16.9896 20.6654 16.7487 20.7852 16.543C20.9076 16.3372 20.9688 16.1419 20.9688 15.957C20.9688 15.7044 20.9049 15.5065 20.7773 15.3633C20.6497 15.2174 20.4674 15.1445 20.2305 15.1445C19.9753 15.1445 19.7734 15.2331 19.625 15.4102C19.4792 15.5846 19.4062 15.8151 19.4062 16.1016H18.2734C18.2734 15.7552 18.3555 15.4388 18.5195 15.1523C18.6862 14.8659 18.9206 14.6419 19.2227 14.4805C19.5247 14.3164 19.8672 14.2344 20.25 14.2344C20.8359 14.2344 21.2904 14.375 21.6133 14.6562C21.9388 14.9375 22.1016 15.3346 22.1016 15.8477C22.1016 16.1289 22.0286 16.4154 21.8828 16.707C21.737 16.9987 21.487 17.3385 21.1328 17.7266L19.8398 19.0898H22.2852V20ZM26.3203 17.8594H26.9648V18.7695H26.3203V20H25.1914V18.7695H22.8594L22.8086 18.0586L25.1797 14.3125H26.3203V17.8594ZM23.9336 17.8594H25.1914V15.8516L25.1172 15.9805L23.9336 17.8594ZM30.7148 16.2344C31.0143 15.875 31.3906 15.6953 31.8438 15.6953C32.7604 15.6953 33.2253 16.2279 33.2383 17.293V20H32.1094V17.3242C32.1094 17.082 32.0573 16.9036 31.9531 16.7891C31.849 16.6719 31.6758 16.6133 31.4336 16.6133C31.1029 16.6133 30.8633 16.7409 30.7148 16.9961V20H29.5859V14H30.7148V16.2344ZM33.9141 17.8477C33.9141 17.4284 33.9948 17.0547 34.1562 16.7266C34.3177 16.3984 34.5495 16.1445 34.8516 15.9648C35.1562 15.7852 35.5091 15.6953 35.9102 15.6953C36.4805 15.6953 36.9453 15.8698 37.3047 16.2188C37.6667 16.5677 37.8685 17.0417 37.9102 17.6406L37.918 17.9297C37.918 18.5781 37.737 19.099 37.375 19.4922C37.013 19.8828 36.5273 20.0781 35.918 20.0781C35.3086 20.0781 34.8216 19.8828 34.457 19.4922C34.0951 19.1016 33.9141 18.5703 33.9141 17.8984V17.8477ZM35.043 17.9297C35.043 18.3307 35.1185 18.638 35.2695 18.8516C35.4206 19.0625 35.6367 19.168 35.918 19.168C36.1914 19.168 36.4049 19.0638 36.5586 18.8555C36.7122 18.6445 36.7891 18.3086 36.7891 17.8477C36.7891 17.4544 36.7122 17.1497 36.5586 16.9336C36.4049 16.7174 36.1888 16.6094 35.9102 16.6094C35.6341 16.6094 35.4206 16.7174 35.2695 16.9336C35.1185 17.1471 35.043 17.4792 35.043 17.9297ZM41.1445 19.5703C40.8659 19.9089 40.4805 20.0781 39.9883 20.0781C39.5352 20.0781 39.1888 19.9479 38.9492 19.6875C38.7122 19.4271 38.5911 19.0456 38.5859 18.543V15.7734H39.7148V18.5039C39.7148 18.944 39.9154 19.1641 40.3164 19.1641C40.6992 19.1641 40.9622 19.0312 41.1055 18.7656V15.7734H42.2383V20H41.1758L41.1445 19.5703ZM45.4648 16.832C45.3112 16.8112 45.1758 16.8008 45.0586 16.8008C44.6315 16.8008 44.3516 16.9453 44.2188 17.2344V20H43.0898V15.7734H44.1562L44.1875 16.2773C44.4141 15.8893 44.7279 15.6953 45.1289 15.6953C45.2539 15.6953 45.3711 15.7122 45.4805 15.7461L45.4648 16.832Z" fill="white"/>
</svg>
