<svg width="993" height="1023" viewBox="0 0 993 1023" fill="none" xmlns="http://www.w3.org/2000/svg">
<path d="M845.807 531.545C651.413 419.315 337.283 419.315 144.178 531.545C-48.9269 643.776 -47.937 825.738 146.434 937.968C340.805 1050.2 654.981 1050.2 848.109 937.968C1041.24 825.738 1040.2 643.868 845.807 531.545Z" fill="#F5F5F5"/>
<path d="M597.059 525.974L567.131 508.777C562.547 506.126 557.346 504.729 552.051 504.729C546.757 504.729 541.555 506.126 536.972 508.777L371.447 604.731L356.828 596.328L236.955 666.475L250.768 674.44L54.7622 787.637C53.2324 788.52 51.9619 789.79 51.0785 791.32C50.1952 792.85 49.7302 794.585 49.7302 796.351C49.7302 798.117 50.1952 799.853 51.0785 801.382C51.9619 802.912 53.2324 804.182 54.7622 805.065L84.9435 822.469C89.5324 825.116 94.7367 826.509 100.034 826.509C105.332 826.509 110.536 825.116 115.125 822.469L311.039 709.157L334.06 722.348C343.229 727.631 353.625 730.412 364.207 730.412C374.789 730.412 385.185 727.631 394.354 722.348L464.777 681.669C466.819 680.495 468.515 678.802 469.694 676.763C470.874 674.724 471.495 672.41 471.495 670.055C471.495 667.699 470.874 665.385 469.694 663.346C468.515 661.307 466.819 659.615 464.777 658.44L431.672 639.401L459.482 623.286L522.607 659.753C525.542 661.448 527.979 663.886 529.674 666.822C531.369 669.758 532.261 673.088 532.261 676.478C532.261 679.868 531.369 683.198 529.674 686.133C527.979 689.069 525.542 691.507 522.607 693.203L417.605 753.865C408.407 759.159 397.98 761.946 387.367 761.946C376.753 761.946 366.326 759.159 357.128 753.865C346.503 747.745 334.461 744.513 322.199 744.488C309.938 744.464 297.883 747.649 287.234 753.727L236.241 782.918C232.921 784.818 230.162 787.561 228.243 790.87C226.324 794.179 225.313 797.936 225.313 801.761C225.313 805.586 226.324 809.344 228.243 812.653C230.162 815.962 232.921 818.705 236.241 820.604L265.502 837.456L254.405 843.764C253.661 844.188 253.037 844.796 252.594 845.529C252.15 846.263 251.902 847.097 251.873 847.954V848.184C251.869 849.063 252.1 849.928 252.541 850.689C252.982 851.449 253.617 852.079 254.382 852.512L276.898 865.565L273.836 867.338C273.664 867.44 273.522 867.585 273.423 867.759C273.324 867.932 273.272 868.128 273.272 868.328C273.272 868.528 273.324 868.724 273.423 868.898C273.522 869.071 273.664 869.216 273.836 869.318L278.831 872.15C279.515 872.529 280.283 872.727 281.064 872.727C281.846 872.727 282.614 872.529 283.298 872.15L292.828 866.647L311.085 877.168C311.76 877.558 312.526 877.764 313.306 877.764C314.086 877.764 314.852 877.558 315.528 877.168L317.415 876.132C317.587 876.031 317.73 875.886 317.828 875.712C317.927 875.539 317.979 875.342 317.979 875.142C317.979 874.943 317.927 874.746 317.828 874.573C317.73 874.399 317.587 874.254 317.415 874.153L298.584 863.286L311.269 855.966L329.686 866.647C330.363 867.044 331.134 867.253 331.919 867.253C332.704 867.253 333.475 867.044 334.152 866.647L336.017 865.612C336.189 865.513 336.332 865.37 336.432 865.198C336.531 865.027 336.584 864.832 336.584 864.633C336.584 864.435 336.531 864.24 336.432 864.068C336.332 863.896 336.189 863.754 336.017 863.655L316.932 852.627L326.532 847.102L317.6 841.991L308.046 847.494L292.138 838.285L291.194 838.814L284.61 834.993C282.312 833.674 279.708 832.98 277.059 832.98C274.409 832.98 271.806 833.674 269.508 834.993L265.318 837.295L270.129 828.938L240.846 812.086C239.005 811.027 237.476 809.5 236.412 807.661C235.349 805.822 234.789 803.736 234.789 801.612C234.789 799.487 235.349 797.401 236.412 795.562C237.476 793.723 239.005 792.196 240.846 791.137L291.862 761.922C301.046 756.683 311.441 753.938 322.015 753.963C332.589 753.987 342.972 756.779 352.132 762.06C362.792 768.202 374.879 771.434 387.182 771.434C399.485 771.434 411.572 768.202 422.233 762.06L527.257 701.422C531.665 698.878 535.326 695.219 537.871 690.812C540.416 686.405 541.756 681.406 541.756 676.317C541.756 671.227 540.416 666.228 537.871 661.821C535.326 657.414 531.665 653.755 527.257 651.212L468.921 617.531L596.897 543.24C598.399 542.361 599.646 541.108 600.518 539.603C601.39 538.098 601.857 536.392 601.873 534.653C601.89 532.913 601.455 531.2 600.611 529.678C599.767 528.157 598.543 526.881 597.059 525.974Z" fill="#E6E6E6"/>
<path d="M783.464 740.673C744.673 718.273 682.031 718.273 643.493 740.673C604.955 763.073 605.185 799.355 643.954 821.732C682.722 844.109 745.387 844.132 783.925 821.732C822.463 799.332 822.233 763.05 783.464 740.673Z" fill="#E6E6E6"/>
<path d="M901.542 670.987C884.368 661.065 856.65 661.065 839.591 670.987C822.532 680.909 822.624 696.955 839.798 706.855C856.972 716.754 884.69 716.777 901.749 706.855C918.808 696.932 918.693 680.886 901.542 670.987Z" fill="#E6E6E6"/>
<path d="M782.774 119.643L782.129 353.888L795.159 361.416L795.827 127.171L782.774 119.643Z" fill="#D8DEE9"/>
<path d="M795.827 127.171L795.159 361.416L806.486 354.832L807.108 133.686L795.827 127.171Z" fill="#F0F0F0"/>
<path opacity="0.2" d="M795.781 137.692L795.827 127.171L782.774 119.643L782.751 130.164L795.781 137.692Z" fill="black"/>
<path opacity="0.2" d="M795.781 137.692L804.921 132.443L795.827 127.171L795.781 137.692Z" fill="black"/>
<path d="M625.928 29.0762L637.254 22.4921L636.587 256.737L625.26 263.321L625.928 29.0762Z" fill="#F0F0F0"/>
<path d="M625.26 263.321L636.587 256.737L963.355 445.399L952.029 451.983L625.26 263.321Z" fill="#F5F5F5"/>
<path d="M612.944 6.58417L965.772 210.279L965.013 474.475L612.184 270.78L612.944 6.58417ZM951.959 451.983L952.627 217.738L625.928 29.1914L625.26 263.413L952.029 452.19" fill="#D8DEE9"/>
<path d="M612.944 6.58417L624.27 0L977.099 203.718L965.772 210.302L612.944 6.58417Z" fill="#F5F5F5"/>
<path d="M965.772 210.302L977.099 203.718L976.339 467.891L965.013 474.475L965.772 210.302Z" fill="#F0F0F0"/>
<path d="M909.761 618.912L870.624 620.063L831.488 618.912C829.807 645.318 834.964 672.23 842.054 685.376C843.741 688.756 846.457 691.513 849.813 693.249C861.323 699.925 879.971 699.925 891.436 693.249C894.844 691.494 897.567 688.65 899.171 685.168C906.331 671.954 911.441 645.18 909.761 618.912Z" fill="#3B4252"/>
<path d="M898.227 602.912C913.536 611.752 913.605 626.095 898.411 634.935C883.217 643.776 858.423 643.776 843.159 634.935C827.896 626.095 827.758 611.752 842.975 602.912C858.193 594.072 882.895 594.072 898.227 602.912Z" fill="#434C5E"/>
<path d="M892.103 606.435C904.052 613.341 904.098 624.506 892.241 631.413C880.385 638.319 861.047 638.319 849.099 631.413C837.151 624.506 837.082 613.318 848.961 606.435C860.84 599.551 880.224 599.528 892.103 606.435Z" fill="#2E3440"/>
<path d="M867.401 620.017C870.545 622.659 874.274 624.511 878.279 625.42C882.283 626.329 886.447 626.268 890.423 625.243C894.249 624.089 897.727 621.998 900.541 619.16C903.356 616.322 905.417 612.826 906.538 608.99C901.91 606.792 897.672 603.852 893.991 600.288C899.856 598.824 906.015 599.04 911.764 600.909C913.359 598.411 914.315 595.559 914.548 592.604C914.78 589.649 914.283 586.683 913.099 583.965C906.426 580.992 898.917 580.47 891.896 582.492C894.813 579.954 898.222 578.045 901.909 576.885C905.597 575.724 909.485 575.337 913.329 575.747C913.884 564.538 912.136 553.334 908.195 542.826C893.623 543.586 879.488 549.87 874.722 554.337C873.916 560.161 876.334 569.807 876.334 569.807C874.452 568.845 872.845 567.422 871.661 565.671C870.478 563.92 869.757 561.898 869.565 559.793C860.357 562.095 856.535 566.699 855.108 570.106C856.422 576.588 859.397 582.617 863.741 587.603C855.177 585.024 851.7 575.471 851.7 575.471C843.159 595.522 844.748 618.083 867.401 620.017Z" fill="#90CAF9"/>
<path opacity="0.2" d="M867.401 620.017C870.545 622.659 874.274 624.511 878.279 625.42C882.283 626.329 886.447 626.268 890.423 625.243C894.249 624.089 897.727 621.998 900.541 619.16C903.356 616.322 905.417 612.826 906.538 608.99C901.91 606.792 897.672 603.852 893.991 600.288C899.856 598.824 906.015 599.04 911.764 600.909C913.359 598.411 914.315 595.559 914.548 592.604C914.78 589.649 914.283 586.683 913.099 583.965C906.426 580.992 898.917 580.47 891.896 582.492C894.813 579.954 898.222 578.045 901.909 576.885C905.597 575.724 909.485 575.337 913.329 575.747C913.884 564.538 912.136 553.334 908.195 542.826C893.623 543.586 879.488 549.87 874.722 554.337C873.916 560.161 876.334 569.807 876.334 569.807C874.452 568.845 872.845 567.422 871.661 565.671C870.478 563.92 869.757 561.898 869.565 559.793C860.357 562.095 856.535 566.699 855.108 570.106C856.422 576.588 859.397 582.617 863.741 587.603C855.177 585.024 851.7 575.471 851.7 575.471C843.159 595.522 844.748 618.083 867.401 620.017Z" fill="black"/>
<path d="M866.895 622.181C866.673 622.164 866.467 622.06 866.32 621.892C866.174 621.724 866.099 621.506 866.112 621.283C867.516 602.866 878.037 572.478 903.154 547.43C903.317 547.299 903.523 547.234 903.733 547.245C903.942 547.257 904.139 547.345 904.287 547.494C904.436 547.642 904.524 547.839 904.536 548.048C904.547 548.258 904.482 548.464 904.351 548.627C879.557 573.353 869.174 603.281 867.793 621.399C867.79 621.511 867.764 621.621 867.717 621.722C867.669 621.824 867.601 621.915 867.516 621.988C867.432 622.062 867.333 622.117 867.226 622.15C867.119 622.184 867.006 622.194 866.895 622.181Z" fill="#F5F5F5"/>
<path d="M873.686 629.871C870.763 632.256 867.317 633.916 863.63 634.717C859.943 635.517 856.119 635.435 852.469 634.476C848.82 633.518 845.449 631.711 842.631 629.202C839.813 626.693 837.627 623.554 836.253 620.04C840.445 618.13 844.283 615.522 847.603 612.328C842.057 611 836.257 611.166 830.797 612.812C829.155 610.7 828.082 608.204 827.679 605.56C827.276 602.917 827.557 600.214 828.495 597.709C834.845 595.1 841.884 594.679 848.5 596.512C842.617 591.921 835.216 589.726 827.781 590.365C826.528 580.487 827.488 570.453 830.59 560.99C844.403 561.842 858.216 567.597 863.004 571.672C863.553 576.276 863.367 580.939 862.452 585.485C864.134 584.686 865.562 583.438 866.577 581.877C867.593 580.317 868.157 578.506 868.207 576.645C876.909 578.74 880.823 582.814 882.365 585.853C881.57 591.552 879.175 596.908 875.459 601.301C883.309 598.999 885.98 590.642 885.98 590.642C894.935 608.276 894.797 628.19 873.686 629.871Z" fill="#90CAF9"/>
<path d="M874.331 631.873C874.131 631.871 873.938 631.798 873.787 631.667C873.635 631.537 873.534 631.357 873.502 631.16C871.2 615.045 859.482 588.524 834.526 566.308C834.369 566.148 834.281 565.933 834.281 565.709C834.281 565.485 834.369 565.27 834.526 565.111C834.686 564.953 834.901 564.865 835.125 564.865C835.349 564.865 835.564 564.953 835.724 565.111C861.047 587.649 872.811 614.676 875.252 630.976C875.285 631.198 875.228 631.425 875.094 631.606C874.961 631.787 874.76 631.908 874.538 631.942L874.331 631.873Z" fill="white"/>
<path d="M217.571 114.97L217.755 181.41L225.813 186.107L225.605 110.319L217.571 114.97Z" fill="#F0F0F0"/>
<path d="M130.826 231.62L130.849 240.921L225.813 186.107L217.755 181.41L130.826 231.62Z" fill="#F5F5F5"/>
<path d="M235.298 93.6519L120.88 159.609L121.157 257.727L235.597 191.655L235.298 93.6519ZM130.849 240.99V231.781L130.641 165.318L217.571 114.97L225.605 110.366L225.813 186.13L130.849 240.99Z" fill="#D8DEE9"/>
<path d="M235.298 93.5367L227.24 88.8633L112.8 154.935L120.857 159.609L235.298 93.5367Z" fill="#F5F5F5"/>
<path d="M112.8 154.935L113.076 253.053L121.134 257.727L120.857 159.609L112.8 154.935Z" fill="#F0F0F0"/>
<path d="M363.182 32.8748L363.367 99.3151L371.424 104.012L371.194 28.2245L363.182 32.8748Z" fill="#F0F0F0"/>
<path d="M276.414 149.525L276.437 158.826L371.424 104.012L363.367 99.3151L276.414 149.525Z" fill="#F5F5F5"/>
<path d="M381.024 11.4418L266.469 77.5367L266.745 175.655L381.185 109.583L381.024 11.4418ZM276.552 158.78V149.571L276.368 83.108L363.321 32.9209L371.332 28.3166L371.562 104.104L276.552 158.78Z" fill="#D8DEE9"/>
<path d="M380.909 11.4418L372.851 6.76837L258.411 72.8403L266.469 77.5137L380.909 11.4418Z" fill="#F5F5F5"/>
<path d="M258.411 72.8403L258.687 170.958L266.745 175.632L266.469 77.5137L258.411 72.8403Z" fill="#F0F0F0"/>
<path d="M189.945 140.201L213.657 158.872L213.703 177.105L134.854 222.642L134.785 204.386L149.818 174.55L163.309 185.025L158.544 199.85L165.473 186.682L189.945 140.201Z" fill="#D8DEE9"/>
<path d="M164.046 149.387C167.752 147.246 170.768 148.973 170.791 153.232C170.649 155.54 169.97 157.783 168.807 159.782C167.643 161.78 166.029 163.479 164.092 164.743C160.385 166.884 157.346 165.157 157.346 160.898C157.483 158.588 158.16 156.343 159.324 154.344C160.487 152.344 162.105 150.646 164.046 149.387Z" fill="#D8DEE9"/>
<path d="M335.557 58.1065L359.269 76.777L359.315 95.0101L280.443 140.547L280.397 122.291L295.43 92.4547L308.921 102.93L304.155 117.755L311.085 104.587L335.557 58.1065Z" fill="#D8DEE9"/>
<path d="M309.657 67.2921C313.387 65.1511 316.403 66.8778 316.403 71.1367C316.266 73.4462 315.589 75.6914 314.425 77.6909C313.262 79.6904 311.644 81.3883 309.703 82.6475C305.997 84.7885 302.981 83.0619 302.958 78.8029C303.1 76.4947 303.779 74.2516 304.942 72.2529C306.106 70.2543 307.72 68.5554 309.657 67.2921Z" fill="#D8DEE9"/>
<path d="M265.456 833.174L236.195 816.299C232.875 814.4 230.116 811.657 228.197 808.348C226.278 805.039 225.267 801.281 225.267 797.456C225.267 793.631 226.278 789.874 228.197 786.565C230.116 783.256 232.875 780.513 236.195 778.613L287.188 749.399C297.837 743.321 309.892 740.136 322.153 740.16C334.415 740.185 346.456 743.417 357.082 749.537C366.28 754.831 376.707 757.618 387.321 757.618C397.934 757.618 408.361 754.831 417.559 749.537L522.561 688.875C525.496 687.179 527.933 684.741 529.628 681.805C531.322 678.87 532.215 675.539 532.215 672.15C532.215 668.76 531.322 665.43 529.628 662.494C527.933 659.558 525.496 657.12 522.561 655.424L416.27 594.049C412.607 591.923 409.566 588.875 407.449 585.207C405.332 581.539 404.215 577.38 404.207 573.145V559.148H413.853V573.168C413.86 575.711 414.533 578.207 415.806 580.409C417.078 582.61 418.905 584.44 421.105 585.715L527.372 647.068C531.78 649.611 535.441 653.27 537.986 657.677C540.531 662.084 541.871 667.084 541.871 672.173C541.871 677.262 540.531 682.261 537.986 686.668C535.441 691.075 531.78 694.734 527.372 697.278L422.463 757.917C411.805 764.065 399.717 767.301 387.413 767.301C375.108 767.301 363.02 764.065 352.362 757.917C343.189 752.66 332.8 749.895 322.227 749.895C311.654 749.895 301.265 752.66 292.092 757.917L241.076 787.131C239.235 788.191 237.706 789.717 236.642 791.556C235.579 793.395 235.019 795.482 235.019 797.606C235.019 799.73 235.579 801.817 236.642 803.656C237.706 805.495 239.235 807.021 241.076 808.081L270.359 824.932L265.456 833.174Z" fill="#434C5E"/>
<path opacity="0.3" d="M413.899 573.168V559.148H404.253V573.168C404.257 577.44 405.393 581.634 407.545 585.324L415.902 580.489C414.604 578.267 413.914 575.742 413.899 573.168Z" fill="black"/>
<path d="M278.325 844.478L255.579 831.309C254.819 830.865 254.188 830.23 253.747 829.467C253.307 828.704 253.074 827.839 253.07 826.958V842.452C253.042 843.355 253.259 844.248 253.696 845.038C254.134 845.828 254.776 846.486 255.556 846.941L278.302 860.109L308.621 842.613L295.085 834.786L278.325 844.478Z" fill="#3B4252"/>
<path d="M255.579 831.309L278.325 844.478L295.108 834.786L308.644 826.981L285.922 813.859C283.63 812.536 281.029 811.839 278.382 811.839C275.735 811.839 273.135 812.536 270.843 813.859L255.603 822.584C254.862 823.006 254.243 823.61 253.804 824.34C253.364 825.07 253.12 825.9 253.093 826.751C253.093 826.751 253.093 826.866 253.093 826.912C253.087 827.799 253.313 828.671 253.749 829.443C254.185 830.215 254.817 830.858 255.579 831.309Z" fill="#434C5E"/>
<path d="M280.604 868.627V845.468C280.605 844.584 280.84 843.716 281.285 842.952C281.73 842.188 282.368 841.555 283.136 841.117L315.735 822.285C316.019 822.119 316.345 822.042 316.673 822.063C317.001 822.083 317.316 822.2 317.577 822.4L313.087 819.269C312.83 819.063 312.517 818.94 312.188 818.915C311.859 818.89 311.531 818.966 311.246 819.131L278.624 837.963C277.86 838.409 277.227 839.048 276.786 839.815C276.346 840.583 276.115 841.452 276.115 842.337V865.496C276.114 865.784 276.188 866.066 276.329 866.317C276.47 866.567 276.674 866.776 276.921 866.924L281.341 870.009C281.111 869.86 280.922 869.655 280.793 869.414C280.664 869.172 280.599 868.901 280.604 868.627Z" fill="#434C5E"/>
<path opacity="0.2" d="M280.604 868.627V845.468C280.605 844.584 280.84 843.716 281.285 842.952C281.73 842.188 282.368 841.555 283.136 841.117L315.735 822.285C316.019 822.119 316.345 822.042 316.673 822.063C317.001 822.083 317.316 822.2 317.577 822.4L313.087 819.269C312.83 819.063 312.517 818.94 312.188 818.915C311.859 818.89 311.531 818.966 311.246 819.131L278.624 837.963C277.86 838.409 277.227 839.048 276.786 839.815C276.346 840.583 276.115 841.452 276.115 842.337V865.496C276.114 865.784 276.188 866.066 276.329 866.317C276.47 866.567 276.674 866.776 276.921 866.924L281.341 870.009C281.111 869.86 280.922 869.655 280.793 869.414C280.664 869.172 280.599 868.901 280.604 868.627Z" fill="white"/>
<path d="M317.577 822.4C317.316 822.2 317.001 822.083 316.673 822.062C316.345 822.042 316.019 822.119 315.735 822.285L283.136 841.117C282.368 841.555 281.73 842.188 281.285 842.952C280.84 843.716 280.605 844.584 280.604 845.468V868.627C280.599 868.901 280.664 869.172 280.793 869.413C280.922 869.655 281.111 869.86 281.341 870.009C281.609 870.178 281.921 870.269 282.239 870.269C282.556 870.269 282.868 870.178 283.136 870.009L315.735 851.177C316.503 850.733 317.141 850.096 317.586 849.328C318.03 848.561 318.265 847.69 318.267 846.803V823.735C318.267 823.474 318.205 823.216 318.085 822.984C317.964 822.751 317.79 822.551 317.577 822.4Z" fill="#434C5E"/>
<path d="M320.431 866.97C320.316 864.77 319.683 862.628 318.583 860.72C317.482 858.812 315.946 857.19 314.1 855.989L291.24 842.82L289.306 843.948V858.59L312.121 871.758C312.775 872.246 313.552 872.542 314.364 872.615C315.177 872.689 315.994 872.535 316.725 872.173L318.613 871.068C319.24 870.596 319.736 869.972 320.054 869.255C320.373 868.538 320.502 867.751 320.431 866.97ZM314.469 866.417C314.172 866.347 313.886 866.239 313.617 866.095C312.767 865.538 312.06 864.79 311.552 863.91C311.045 863.031 310.75 862.044 310.693 861.03C310.669 860.831 310.669 860.63 310.693 860.432C310.999 860.495 311.294 860.604 311.568 860.754C312.426 861.307 313.139 862.058 313.647 862.943C314.156 863.828 314.446 864.822 314.492 865.842C314.51 866.034 314.502 866.227 314.469 866.417Z" fill="#90CAF9"/>
<path opacity="0.5" d="M320.431 866.97C320.316 864.77 319.683 862.628 318.583 860.72C317.482 858.812 315.946 857.19 314.1 855.989L291.24 842.82L289.306 843.948V858.59L312.121 871.758C312.775 872.246 313.552 872.542 314.364 872.615C315.177 872.689 315.994 872.535 316.725 872.173L318.613 871.068C319.24 870.596 319.736 869.972 320.054 869.255C320.373 868.538 320.502 867.751 320.431 866.97ZM314.469 866.417C314.172 866.347 313.886 866.239 313.617 866.095C312.767 865.538 312.06 864.79 311.552 863.91C311.045 863.031 310.75 862.044 310.693 861.03C310.669 860.831 310.669 860.63 310.693 860.432C310.999 860.495 311.294 860.604 311.568 860.754C312.426 861.307 313.139 862.058 313.647 862.943C314.156 863.828 314.446 864.822 314.492 865.842C314.51 866.034 314.502 866.227 314.469 866.417Z" fill="white"/>
<path opacity="0.2" d="M320.431 866.97C320.316 864.77 319.683 862.628 318.583 860.72C317.482 858.812 315.946 857.19 314.1 855.989L291.24 842.82L289.306 843.948L312.098 857.117C313.947 858.317 315.486 859.938 316.59 861.846C317.694 863.754 318.332 865.896 318.451 868.098C318.53 868.879 318.401 869.667 318.077 870.382C317.754 871.098 317.248 871.715 316.61 872.173L318.498 871.068C319.146 870.609 319.665 869.991 320.003 869.273C320.342 868.555 320.49 867.762 320.431 866.97Z" fill="black"/>
<g opacity="0.2">
<path opacity="0.2" d="M310.693 861.03C310.669 860.831 310.669 860.631 310.693 860.432C309.496 860.178 308.644 860.938 308.621 862.458C308.678 863.469 308.973 864.452 309.481 865.328C309.989 866.204 310.696 866.948 311.545 867.499C312.995 868.328 314.192 867.845 314.446 866.44C314.13 866.372 313.828 866.256 313.548 866.095C312.711 865.531 312.017 864.779 311.522 863.9C311.026 863.021 310.743 862.038 310.693 861.03Z" fill="black"/>
</g>
<path d="M338.181 857.186C338.066 854.986 337.432 852.844 336.332 850.936C335.232 849.027 333.696 847.406 331.85 846.204L309.036 833.036L307.102 834.164V848.829L329.916 861.997C330.573 862.48 331.349 862.773 332.161 862.846C332.972 862.919 333.788 862.769 334.521 862.412L336.408 861.307C337.031 860.828 337.52 860.198 337.83 859.477C338.141 858.755 338.261 857.967 338.181 857.186ZM332.241 856.656C331.933 856.588 331.638 856.471 331.367 856.311C330.517 855.759 329.81 855.015 329.302 854.139C328.794 853.263 328.5 852.28 328.443 851.269C328.419 851.063 328.419 850.854 328.443 850.648C328.751 850.716 329.046 850.832 329.318 850.993C330.174 851.544 330.888 852.291 331.4 853.171C331.912 854.051 332.208 855.041 332.264 856.058C332.27 856.257 332.262 856.457 332.241 856.656Z" fill="#90CAF9"/>
<path opacity="0.5" d="M338.181 857.186C338.066 854.986 337.432 852.844 336.332 850.936C335.232 849.027 333.696 847.406 331.85 846.204L309.036 833.036L307.102 834.164V848.829L329.916 861.997C330.573 862.48 331.349 862.773 332.161 862.846C332.972 862.919 333.788 862.769 334.521 862.412L336.408 861.307C337.031 860.828 337.52 860.198 337.83 859.477C338.141 858.755 338.261 857.967 338.181 857.186ZM332.241 856.656C331.933 856.588 331.638 856.471 331.367 856.311C330.517 855.759 329.81 855.015 329.302 854.139C328.794 853.263 328.5 852.28 328.443 851.269C328.419 851.063 328.419 850.854 328.443 850.648C328.751 850.716 329.046 850.832 329.318 850.993C330.174 851.544 330.888 852.291 331.4 853.171C331.912 854.051 332.208 855.041 332.264 856.058C332.27 856.257 332.262 856.457 332.241 856.656Z" fill="white"/>
<path opacity="0.2" d="M338.181 857.186C338.066 854.986 337.432 852.844 336.332 850.936C335.232 849.027 333.696 847.406 331.85 846.204L309.036 833.036L307.102 834.164L329.916 847.332C331.762 848.534 333.298 850.156 334.398 852.064C335.499 853.972 336.132 856.114 336.247 858.314C336.316 859.097 336.182 859.885 335.86 860.602C335.538 861.32 335.037 861.943 334.405 862.412L336.293 861.307C336.937 860.841 337.448 860.217 337.779 859.494C338.11 858.772 338.248 857.977 338.181 857.186Z" fill="black"/>
<g opacity="0.2">
<path opacity="0.2" d="M328.443 851.269C328.418 851.063 328.418 850.854 328.443 850.648C327.269 850.394 326.394 851.177 326.394 852.673C326.441 853.687 326.729 854.675 327.233 855.556C327.738 856.436 328.444 857.184 329.295 857.738C330.745 858.567 331.942 858.06 332.195 856.656C331.881 856.584 331.579 856.468 331.297 856.311C330.461 855.752 329.767 855.004 329.272 854.129C328.776 853.253 328.492 852.274 328.443 851.269Z" fill="black"/>
</g>
<path d="M450.803 648.472C450.258 645.45 449.069 642.58 447.317 640.058C445.566 637.535 443.292 635.419 440.65 633.853L393.525 605.652C390.711 603.953 388.384 601.554 386.77 598.69C385.157 595.826 384.311 592.594 384.316 589.306V566.86L277.841 628.42L268.955 633.554V658.878C268.955 662.223 269.836 665.51 271.509 668.408C273.182 671.305 275.588 673.711 278.486 675.384L329.133 704.53C337.256 709.195 346.46 711.65 355.827 711.65C365.194 711.65 374.398 709.195 382.521 704.53L440.259 671.494C444.206 669.244 447.348 665.812 449.239 661.681C451.131 657.551 451.678 652.93 450.803 648.472Z" fill="#90CAF9"/>
<path opacity="0.3" d="M440.259 663.39L382.843 696.242C374.593 700.976 365.247 703.466 355.735 703.466C346.223 703.466 336.877 700.976 328.627 696.242L286.014 671.701C283.537 670.263 281.479 668.201 280.045 665.721C278.612 663.242 277.852 660.43 277.841 657.565V628.42L268.955 633.554V658.878C268.955 662.223 269.836 665.51 271.509 668.408C273.182 671.305 275.588 673.711 278.486 675.384L329.133 704.53C337.256 709.195 346.46 711.65 355.827 711.65C365.194 711.65 374.398 709.195 382.521 704.53L440.259 671.494C444.206 669.244 447.348 665.812 449.239 661.681C451.131 657.551 451.678 652.93 450.803 648.472C450.25 651.581 449.018 654.529 447.196 657.108C445.373 659.686 443.005 661.831 440.259 663.39Z" fill="black"/>
<path opacity="0.4" d="M286.014 671.609C283.537 670.17 281.479 668.109 280.045 665.629C278.612 663.15 277.852 660.338 277.841 657.473V628.42L268.955 633.554V658.878C268.955 662.223 269.836 665.51 271.509 668.408C273.182 671.305 275.588 673.711 278.486 675.384L296.42 685.721V677.663L286.014 671.609Z" fill="black"/>
<path opacity="0.3" d="M286.014 671.609L296.397 677.594L407.568 614.055L393.525 605.652C390.711 603.953 388.384 601.554 386.77 598.69C385.157 595.826 384.311 592.594 384.316 589.306V566.86L277.841 628.42V657.473C277.852 660.338 278.612 663.15 280.045 665.629C281.479 668.109 283.537 670.17 286.014 671.609Z" fill="black"/>
<path d="M577.191 89.7151C577.191 84.6273 575.395 81.036 572.587 79.3324L555.528 69.4561C552.535 67.5683 548.345 67.7295 543.672 70.423L90.814 330.958C90.2155 331.304 89.6169 331.695 89.0414 332.086L88.5119 332.501C88.1205 332.8 87.7061 333.099 87.3378 333.422L86.7392 333.928L85.6572 334.895C85.473 335.079 85.2888 335.286 85.0816 335.47L84.0687 336.552L83.5392 337.151C83.2169 337.542 82.8716 337.934 82.5493 338.348L82.0888 338.924C81.7665 339.361 81.4212 339.822 81.0989 340.305L80.7536 340.811C80.3852 341.341 80.0629 341.87 79.7176 342.423L79.4874 342.791C79.096 343.459 78.7277 344.127 78.3593 344.817C78.1521 345.232 77.9449 345.646 77.7608 346.083C77.5766 346.521 77.5536 346.475 77.4615 346.682L76.978 347.833L76.6788 348.593L76.2874 349.675L75.9881 350.527C75.9881 350.872 75.7809 351.217 75.6888 351.54C75.5968 351.862 75.5277 352.184 75.4356 352.506C75.3435 352.829 75.2745 353.128 75.2054 353.45L74.9982 354.486L74.8601 355.338C74.7913 355.742 74.7452 356.149 74.7219 356.558C74.7219 356.765 74.7219 356.996 74.7219 357.226C74.7219 357.847 74.7219 358.469 74.7219 359.068L75.5507 723.223C75.5507 728.104 77.2083 731.58 79.8788 733.376C80.1679 733.562 80.4677 733.731 80.7766 733.882L97.6054 743.689L97.8586 743.827C100.805 745.37 104.765 745.07 109.162 742.538L561.767 482.003C566.502 478.921 570.442 474.765 573.266 469.872C576.091 464.98 577.719 459.489 578.02 453.848L577.191 89.7151ZM549.565 105.439L277.22 262.262L197.335 308.305L116.276 354.993L561.145 98.7856L549.565 105.439Z" fill="#90CAF9"/>
<path d="M92.7939 733.329L91.9651 369.197C92.2599 363.558 93.8865 358.068 96.7115 353.178C99.5366 348.288 103.48 344.137 108.218 341.065L560.846 80.3914C565.312 77.813 569.364 77.5597 572.356 79.1943L555.298 69.318C552.305 67.4302 548.115 67.5914 543.441 70.2849L90.814 330.958C86.0807 334.036 82.1414 338.188 79.317 343.077C76.4925 347.966 74.8629 353.453 74.5608 359.091L75.3896 723.246C75.3896 728.127 77.0471 731.603 79.7176 733.399C80.0068 733.585 80.3066 733.754 80.6155 733.905L97.4443 743.712C94.5896 742.009 92.7939 738.417 92.7939 733.329Z" fill="#90CAF9"/>
<path opacity="0.3" d="M555.275 69.318C552.282 67.4302 548.092 67.5914 543.418 70.2849L90.8141 330.958C85.4681 334.326 81.1577 339.106 78.3594 344.771L95.7867 354.832C98.5646 349.16 102.87 344.377 108.218 341.019L560.846 80.3914C565.312 77.813 569.364 77.5597 572.356 79.1943L555.275 69.318Z" fill="white"/>
<path opacity="0.2" d="M74.5608 359.091L75.3896 723.246C75.3896 728.127 77.0471 731.603 79.7176 733.399C80.0068 733.585 80.3066 733.754 80.6155 733.905L97.4443 743.712C94.5666 741.986 92.8399 738.394 92.8399 733.306L92.0112 369.174C92.1436 364.174 93.4529 359.277 95.8327 354.878L78.4054 344.817C76.0354 349.213 74.7192 354.099 74.5608 359.091Z" fill="black"/>
<path d="M577.191 89.7151C577.191 84.6274 575.395 81.036 572.587 79.3324C569.617 77.6979 565.565 77.9511 561.076 80.5295L108.218 341.065C103.48 344.137 99.5366 348.288 96.7115 353.178C93.8865 358.068 92.2599 363.558 91.9651 369.197L92.7939 733.33C92.7939 738.417 94.5896 742.009 97.3982 743.735L97.6515 743.873C100.598 745.416 104.558 745.117 108.955 742.584L561.767 482.003C566.502 478.921 570.442 474.765 573.266 469.872C576.091 464.98 577.719 459.489 578.02 453.848L577.191 89.7151ZM553.686 468.052L108.84 724.259L108.057 369.151C108.36 366.347 109.248 363.638 110.663 361.199C112.079 358.761 113.991 356.646 116.276 354.993L561.145 98.7856L561.928 453.894C561.622 456.699 560.731 459.409 559.311 461.848C557.891 464.287 555.975 466.401 553.686 468.052Z" fill="#90CAF9"/>
<path d="M561.145 98.7856L549.634 105.439L550.394 448.184C550.084 450.986 549.194 453.693 547.778 456.13C546.363 458.568 544.455 460.684 542.175 462.342L108.817 711.989V724.259L553.686 468.052C555.966 466.396 557.874 464.281 559.286 461.842C560.698 459.403 561.582 456.695 561.882 453.894L561.145 98.7856Z" fill="#90CAF9"/>
<path opacity="0.3" d="M561.145 98.7856L549.634 105.439L550.394 448.184C550.084 450.986 549.194 453.693 547.778 456.13C546.363 458.568 544.455 460.684 542.175 462.342L108.817 711.989V724.259L553.686 468.052C555.966 466.396 557.874 464.281 559.286 461.842C560.698 459.403 561.582 456.695 561.882 453.894L561.145 98.7856Z" fill="black"/>
<path d="M550.394 448.184L549.611 105.347L116.276 354.993C113.996 356.648 112.088 358.764 110.676 361.202C109.264 363.641 108.38 366.349 108.08 369.151L108.84 711.989L542.175 462.435C544.466 460.766 546.38 458.636 547.796 456.181C549.212 453.726 550.097 451.002 550.394 448.184Z" fill="#434C5E"/>
<g opacity="0.2">
<path opacity="0.2" d="M455.43 159.678L302.912 600.219L355.079 570.199L507.597 129.635L455.43 159.678Z" fill="white"/>
<path opacity="0.2" d="M332.034 230.722L179.516 671.263L209.859 653.813L362.377 213.272L332.034 230.722Z" fill="white"/>
<path opacity="0.2" d="M197.381 308.259L108.495 565.065L108.817 711.989L124.748 702.826L277.266 262.262L197.381 308.259Z" fill="white"/>
<path opacity="0.2" d="M549.98 262.63L465.513 506.59L493.876 490.268L550.118 327.781L549.98 262.63Z" fill="white"/>
<path opacity="0.2" d="M549.634 105.439L539.781 111.102L387.263 551.643L407.545 539.971L549.68 129.404L549.634 105.439Z" fill="white"/>
</g>
<path d="M166.509 429.767L168.811 443.879C168.853 444.901 169.154 445.896 169.686 446.769C170.217 447.643 170.963 448.367 171.851 448.873C172.74 449.38 173.743 449.652 174.765 449.664C175.788 449.677 176.797 449.429 177.698 448.944L191.073 443.741L177.721 454.009C172.976 457.828 169.824 463.278 168.88 469.295L166.716 485.94L164.414 471.85C164.372 470.828 164.071 469.834 163.54 468.96C163.008 468.086 162.263 467.362 161.374 466.856C160.486 466.349 159.483 466.077 158.46 466.065C157.437 466.053 156.428 466.301 155.528 466.786L142.152 471.965L155.505 461.721C160.251 457.893 163.402 452.436 164.345 446.411L166.509 429.767Z" fill="#90CAF9"/>
<path d="M174.083 386.763L175.533 395.741C175.561 396.392 175.753 397.025 176.093 397.581C176.432 398.137 176.907 398.598 177.473 398.92C178.039 399.242 178.678 399.415 179.329 399.423C179.981 399.431 180.623 399.273 181.197 398.964L189.715 395.649L181.197 402.141C178.175 404.572 176.171 408.046 175.58 411.879L174.198 422.492L172.771 413.514C172.747 412.861 172.557 412.225 172.22 411.666C171.882 411.107 171.407 410.643 170.841 410.318C170.274 409.993 169.634 409.818 168.981 409.809C168.327 409.8 167.683 409.958 167.108 410.268L158.59 413.583L167.085 407.045C170.108 404.611 172.119 401.14 172.725 397.306L174.083 386.763Z" fill="#90CAF9"/>
<path d="M538.768 137.14L541.07 151.229C541.116 152.251 541.421 153.246 541.955 154.119C542.49 154.992 543.237 155.715 544.127 156.221C545.016 156.727 546.02 156.999 547.044 157.011C548.067 157.024 549.077 156.777 549.98 156.293L563.355 151.114L549.98 161.358C545.24 165.188 542.097 170.646 541.162 176.668L538.998 193.312L536.696 179.223C536.658 178.199 536.36 177.202 535.83 176.325C535.3 175.448 534.555 174.721 533.665 174.212C532.776 173.703 531.772 173.429 530.748 173.415C529.723 173.402 528.712 173.65 527.81 174.135L514.411 179.338L527.787 169.093C532.533 165.266 535.684 159.808 536.627 153.784L538.768 137.14Z" fill="#90CAF9"/>
<path d="M554.354 94.5726L555.781 103.551C555.802 104.204 555.991 104.841 556.329 105.401C556.666 105.961 557.142 106.425 557.71 106.748C558.278 107.071 558.92 107.244 559.574 107.248C560.228 107.253 560.872 107.089 561.444 106.774L569.962 103.482L561.467 109.997C558.447 112.443 556.438 115.92 555.827 119.758L554.469 130.348L553.018 121.37C552.997 120.716 552.809 120.079 552.471 119.52C552.133 118.96 551.657 118.496 551.089 118.173C550.521 117.849 549.879 117.677 549.225 117.673C548.572 117.668 547.928 117.831 547.355 118.147L538.837 121.439L547.355 114.924C550.377 112.482 552.38 109.002 552.972 105.163L554.354 94.5726Z" fill="#90CAF9"/>
<path d="M454.555 451.108L455.982 460.086C456.006 460.739 456.196 461.375 456.534 461.934C456.871 462.493 457.346 462.957 457.913 463.282C458.479 463.607 459.12 463.782 459.773 463.791C460.426 463.799 461.071 463.642 461.646 463.332L470.164 460.017L461.6 466.601C458.581 469.036 456.578 472.508 455.982 476.339L454.601 486.929L453.174 477.951C453.146 477.3 452.954 476.667 452.615 476.111C452.275 475.555 451.8 475.094 451.234 474.772C450.668 474.45 450.029 474.277 449.378 474.269C448.727 474.261 448.084 474.419 447.511 474.728L439.039 478.112L447.557 471.574C450.574 469.138 452.576 465.667 453.174 461.836L454.555 451.108Z" fill="#90CAF9"/>
<path d="M135.959 423.206L137.087 430.112C137.079 430.644 137.213 431.168 137.474 431.631C137.736 432.093 138.116 432.478 138.575 432.746C139.035 433.013 139.557 433.153 140.089 433.151C140.62 433.15 141.142 433.007 141.6 432.737L148.276 430.158L141.6 435.269C139.237 437.174 137.67 439.891 137.203 442.889L136.144 451.177L135.016 444.155C134.995 443.644 134.844 443.147 134.578 442.71C134.312 442.273 133.94 441.911 133.496 441.658C133.051 441.405 132.55 441.269 132.038 441.263C131.527 441.257 131.023 441.381 130.572 441.623L123.919 444.224L130.572 439.114C132.942 437.215 134.511 434.495 134.969 431.494L135.959 423.206Z" fill="#90CAF9"/>
<g opacity="0.8">
<path opacity="0.8" d="M166.509 429.767L168.811 443.879C168.853 444.901 169.154 445.896 169.686 446.769C170.217 447.643 170.963 448.367 171.851 448.873C172.74 449.38 173.743 449.652 174.765 449.664C175.788 449.677 176.797 449.429 177.698 448.944L191.073 443.741L177.721 454.009C172.976 457.828 169.824 463.278 168.88 469.295L166.716 485.94L164.414 471.85C164.372 470.828 164.071 469.834 163.54 468.96C163.008 468.086 162.263 467.362 161.374 466.856C160.486 466.349 159.483 466.077 158.46 466.065C157.437 466.053 156.428 466.301 155.528 466.786L142.152 471.965L155.505 461.721C160.251 457.893 163.402 452.436 164.345 446.411L166.509 429.767Z" fill="white"/>
<path opacity="0.8" d="M174.083 386.763L175.533 395.741C175.561 396.392 175.753 397.025 176.093 397.581C176.432 398.137 176.907 398.598 177.473 398.92C178.039 399.242 178.678 399.415 179.329 399.423C179.981 399.431 180.623 399.273 181.197 398.964L189.715 395.649L181.197 402.141C178.175 404.572 176.171 408.046 175.58 411.879L174.198 422.492L172.771 413.514C172.747 412.861 172.557 412.225 172.22 411.666C171.882 411.107 171.407 410.643 170.841 410.318C170.274 409.993 169.634 409.818 168.981 409.809C168.327 409.8 167.683 409.958 167.108 410.268L158.59 413.583L167.085 407.045C170.108 404.611 172.119 401.14 172.725 397.306L174.083 386.763Z" fill="white"/>
<path opacity="0.8" d="M538.768 137.14L541.07 151.229C541.116 152.251 541.421 153.246 541.955 154.119C542.49 154.992 543.237 155.715 544.127 156.221C545.016 156.727 546.02 156.999 547.044 157.011C548.067 157.024 549.077 156.777 549.98 156.293L563.355 151.114L549.98 161.358C545.24 165.188 542.097 170.646 541.162 176.668L538.998 193.312L536.696 179.223C536.658 178.199 536.36 177.202 535.83 176.325C535.3 175.448 534.555 174.721 533.665 174.212C532.776 173.703 531.772 173.429 530.748 173.415C529.723 173.402 528.712 173.65 527.81 174.135L514.411 179.338L527.787 169.093C532.533 165.266 535.684 159.808 536.627 153.784L538.768 137.14Z" fill="white"/>
<path opacity="0.8" d="M554.354 94.5726L555.781 103.551C555.802 104.204 555.991 104.841 556.329 105.401C556.666 105.961 557.142 106.425 557.71 106.748C558.278 107.071 558.92 107.244 559.574 107.248C560.228 107.253 560.872 107.089 561.444 106.774L569.962 103.482L561.467 109.997C558.447 112.443 556.438 115.92 555.827 119.758L554.469 130.348L553.018 121.37C552.997 120.716 552.809 120.079 552.471 119.52C552.133 118.96 551.657 118.496 551.089 118.173C550.521 117.849 549.879 117.677 549.225 117.673C548.572 117.668 547.928 117.831 547.355 118.147L538.837 121.439L547.355 114.924C550.377 112.482 552.38 109.002 552.972 105.163L554.354 94.5726Z" fill="white"/>
<path opacity="0.8" d="M454.555 451.108L455.982 460.086C456.006 460.739 456.196 461.375 456.534 461.934C456.871 462.493 457.346 462.957 457.913 463.282C458.479 463.607 459.12 463.782 459.773 463.791C460.426 463.799 461.071 463.642 461.646 463.332L470.164 460.017L461.6 466.601C458.581 469.036 456.578 472.508 455.982 476.339L454.601 486.929L453.174 477.951C453.146 477.3 452.954 476.667 452.615 476.111C452.275 475.555 451.8 475.094 451.234 474.772C450.668 474.45 450.029 474.277 449.378 474.269C448.727 474.261 448.084 474.419 447.511 474.728L439.039 478.112L447.557 471.574C450.574 469.138 452.576 465.667 453.174 461.836L454.555 451.108Z" fill="white"/>
<path opacity="0.8" d="M135.959 423.206L137.087 430.112C137.079 430.644 137.213 431.168 137.474 431.631C137.736 432.093 138.116 432.478 138.575 432.746C139.035 433.013 139.557 433.153 140.089 433.151C140.62 433.15 141.142 433.007 141.6 432.737L148.276 430.158L141.6 435.269C139.237 437.174 137.67 439.891 137.203 442.889L136.144 451.177L135.016 444.155C134.995 443.644 134.844 443.147 134.578 442.71C134.312 442.273 133.94 441.911 133.496 441.658C133.051 441.405 132.55 441.269 132.038 441.263C131.527 441.257 131.023 441.381 130.572 441.623L123.919 444.224L130.572 439.114C132.942 437.215 134.511 434.495 134.969 431.494L135.959 423.206Z" fill="white"/>
</g>
<path d="M593.168 425.163C583.177 419.039 577.191 400.391 571.758 402.601C566.325 404.811 574.958 414.688 572.656 416.276C570.354 417.865 561.145 412.155 557.6 408.426C554.054 404.696 547.862 399.77 543.326 410.291C538.791 420.811 547.194 430.411 559.326 436.42C570.331 441.853 577.398 442.981 585.594 446.849C590.613 441.007 594.053 433.977 595.585 426.429C594.758 426.05 593.951 425.628 593.168 425.163Z" fill="#FFA8A7"/>
<path d="M699.597 367.885C683.251 363.281 671.971 371.269 666.031 385.842L644.161 439.505C644.161 439.505 608.477 432.299 595.585 426.36C594.053 433.908 590.613 440.938 585.594 446.78C586.423 447.171 587.251 447.563 588.103 448.023C594.549 451.43 625.651 466.187 644.299 474.291C648.223 476.001 652.647 476.171 656.691 474.768C660.735 473.364 664.102 470.49 666.123 466.717C685.646 430.435 705.191 384.207 699.597 367.885Z" fill="#434C5E"/>
<path d="M637.991 768.184C640.074 770.16 642.54 771.688 645.236 772.673C647.933 773.659 650.803 774.082 653.669 773.917C659.414 773.552 665.046 772.148 670.29 769.773C675.585 767.609 682.262 761.531 687.994 761.646C693.606 761.616 699.211 761.24 704.777 760.518C705 752.937 704.226 745.359 702.475 737.98L675.7 737.289C668.472 747.119 654.405 755.292 643.769 758.354C642.144 758.8 640.67 759.678 639.503 760.894C638.336 762.11 637.519 763.618 637.139 765.26C637.152 765.313 637.152 765.369 637.139 765.422C637.302 766.376 637.588 767.304 637.991 768.184Z" fill="#3B4252"/>
<path d="M687.994 761.669C682.262 761.554 675.585 767.632 670.29 769.796C665.046 772.171 659.414 773.575 653.669 773.94C650.803 774.105 647.933 773.682 645.236 772.697C642.54 771.711 640.074 770.183 637.991 768.207C637.562 767.354 637.245 766.448 637.047 765.514C637.06 765.461 637.06 765.405 637.047 765.352C636.806 766.514 636.806 767.713 637.047 768.875C637.247 769.816 637.564 770.729 637.991 771.591C640.072 773.569 642.538 775.096 645.236 776.078C647.933 777.06 650.804 777.477 653.669 777.301C659.414 776.936 665.046 775.532 670.29 773.157C675.585 770.993 682.262 764.938 687.994 765.053C693.518 765.094 699.04 764.778 704.523 764.109C704.662 762.912 704.731 761.807 704.777 760.541C699.211 761.263 693.606 761.64 687.994 761.669Z" fill="#2E3440"/>
<path d="M770.572 783.01C770.593 785.918 770.299 788.821 769.697 791.666C768.765 796.734 765.911 801.245 761.732 804.259C757.87 806.447 753.509 807.604 749.07 807.62C745.192 808.011 741.274 807.604 737.559 806.423C734.731 805.422 732.334 803.48 730.768 800.921C730.778 800.974 730.778 801.029 730.768 801.082C731.328 802.956 732.332 804.666 733.695 806.069C735.058 807.472 736.739 808.525 738.595 809.14C742.309 810.328 746.229 810.727 750.106 810.314C754.552 810.319 758.924 809.169 762.791 806.976C766.97 803.962 769.824 799.45 770.757 794.383C771.338 791.534 771.624 788.634 771.608 785.727C771.62 783.745 772.034 781.787 772.825 779.97C773.617 778.154 774.769 776.517 776.213 775.16C776.942 774.508 777.626 773.808 778.262 773.065C778.713 772.557 779.056 771.962 779.27 771.317C779.484 770.671 779.564 769.989 779.505 769.312C779.505 768.76 779.505 768.23 779.344 767.724C778.285 768.944 775.798 771.868 775.177 772.443C773.724 773.794 772.566 775.429 771.774 777.247C770.982 779.065 770.573 781.027 770.572 783.01Z" fill="#2E3440"/>
<path d="M748.564 752.898C749.5 758.837 748.7 764.921 746.262 770.417C743.838 775.903 740.686 781.037 736.892 785.681C735.043 787.875 733.408 790.242 732.011 792.748C730.634 795.236 730.139 798.116 730.607 800.921C732.173 803.48 734.57 805.422 737.398 806.423C741.113 807.604 745.031 808.011 748.909 807.62C753.348 807.604 757.708 806.447 761.571 804.259C765.75 801.245 768.604 796.734 769.536 791.666C770.138 788.821 770.431 785.918 770.411 783.01C770.412 781.027 770.821 779.065 771.613 777.247C772.405 775.429 773.563 773.794 775.016 772.443C775.637 771.868 778.123 768.944 779.182 767.724C778.604 763.396 777.138 759.234 774.877 755.499L748.564 752.898Z" fill="#3B4252"/>
<path d="M674.48 504.357C674.48 504.357 667.712 592.622 668.287 617.163C668.863 641.704 671.372 738.74 671.372 738.74C685.185 746.774 705.283 740.788 705.283 740.788C706.918 663.344 714.285 646.676 709.266 618.337C712.811 597.295 717.692 548.259 717.692 548.259C724.598 607.24 729.617 637.629 729.617 637.629L746.123 755.683C759.683 762.705 776.765 755.683 776.765 755.683C776.765 688.391 778.239 659.914 771.171 615.505C771.144 576.268 768.838 537.065 764.264 498.095L674.48 504.357Z" fill="#434C5E"/>
<path opacity="0.2" d="M690.872 527.148C695.614 538.659 710.44 538.659 710.44 538.659L713.11 551.735L712.121 598.216C714.952 575.609 717.692 548.259 717.692 548.259L715.85 534.262C706.958 534.792 698.15 532.283 690.872 527.148Z" fill="black"/>
<path d="M752.04 295.551C749.349 292.445 745.599 290.451 741.519 289.957L686.567 295.068C680.236 308.489 685.3 317.353 685.3 317.353C684.449 337.842 683.735 350.849 692.736 355.177C699.104 357.716 705.993 358.672 712.811 357.963C719.218 357.584 725.482 355.916 731.228 353.059L731.528 352.898C733.513 351.851 735.246 350.384 736.606 348.599C737.966 346.814 738.92 344.753 739.401 342.561C740.328 338.577 740.959 334.529 741.289 330.452C741.39 328.135 741.644 325.828 742.049 323.545C742.482 321.248 743.551 319.119 745.134 317.399C745.937 316.558 746.934 315.926 748.037 315.557C749.14 315.187 750.317 315.093 751.464 315.281C751.862 315.388 752.247 315.535 752.616 315.718C754.158 306.624 754.618 298.728 752.04 295.551Z" fill="#3B4252"/>
<path d="M731.919 297.117C730.967 300.937 731.224 304.959 732.656 308.627C734.074 312.263 735.236 315.994 736.132 319.793C736.848 323.616 736.324 327.569 734.636 331.073C733.76 332.79 732.522 334.297 731.008 335.489C729.494 336.681 727.739 337.531 725.864 337.98C719.971 339.223 714.192 335.793 708.276 334.642C702.603 333.704 696.78 334.779 691.815 337.681C691.391 337.929 690.911 338.065 690.419 338.075C689.928 338.086 689.442 337.97 689.008 337.739C688.574 337.508 688.206 337.17 687.94 336.757C687.674 336.344 687.518 335.869 687.487 335.378C686.774 323.591 686.797 305.105 688.546 296.449L731.919 297.117Z" fill="#FFA8A7"/>
<path d="M742.325 336.345C742.325 336.345 742.21 341.134 742.095 346.843C744.534 344.749 746.311 341.989 747.205 338.901C745.311 338.708 743.563 337.792 742.325 336.345Z" fill="#3B4252"/>
<path d="M689.513 286.435L682.607 281.692C681.905 283.976 681.777 286.398 682.235 288.743C682.693 291.088 683.722 293.284 685.231 295.137C688.353 298.764 692.586 301.257 697.272 302.227C701.929 303.178 706.706 303.396 711.43 302.872C718.351 302.309 725.199 301.06 731.873 299.142C734.892 298.515 737.675 297.056 739.908 294.929C741.294 293.155 742.08 290.986 742.155 288.735C742.229 286.484 741.588 284.268 740.322 282.406C739.009 280.582 737.325 279.057 735.381 277.93C733.437 276.803 731.277 276.1 729.041 275.868C724.479 275.496 719.886 275.853 715.436 276.927C710.985 278 706.389 278.335 701.83 277.917C699.552 277.677 697.366 276.891 695.458 275.624C693.55 274.357 691.976 272.648 690.872 270.642C686.981 276.881 689.513 286.435 689.513 286.435Z" fill="#3B4252"/>
<path d="M706.641 317.997L696.627 330.153L705.813 333.399L706.641 317.997Z" fill="#F28F8F"/>
<path d="M714.216 339.43L706.48 341.732C706.986 342.629 707.768 343.338 708.71 343.753C709.652 344.168 710.703 344.267 711.706 344.034C712.578 343.657 713.299 342.999 713.753 342.164C714.208 341.33 714.371 340.368 714.216 339.43Z" fill="#F28F8F"/>
<path opacity="0.3" d="M714.216 339.43L706.48 341.732C706.986 342.629 707.768 343.338 708.71 343.753C709.652 344.168 710.703 344.267 711.706 344.034C712.578 343.657 713.299 342.999 713.753 342.164C714.208 341.33 714.371 340.368 714.216 339.43Z" fill="black"/>
<path d="M709.174 344.035C709.981 344.35 710.866 344.407 711.706 344.196C712.422 343.924 713.043 343.447 713.489 342.825C713.935 342.202 714.188 341.462 714.216 340.696C713.184 340.536 712.129 340.731 711.223 341.249C710.204 341.876 709.469 342.875 709.174 344.035Z" fill="#F28F8F"/>
<path d="M720.27 320.668C720.242 321.214 720.052 321.74 719.725 322.178C719.398 322.616 718.948 322.947 718.432 323.13C717.916 323.312 717.358 323.337 716.828 323.202C716.298 323.066 715.82 322.777 715.455 322.369C715.089 321.962 714.853 321.456 714.776 320.914C714.699 320.373 714.785 319.82 715.022 319.327C715.259 318.834 715.637 318.423 716.108 318.145C716.58 317.867 717.123 317.736 717.669 317.767C718.398 317.808 719.08 318.137 719.568 318.68C720.055 319.224 720.308 319.938 720.27 320.668Z" fill="#2E3440"/>
<path d="M697.249 318.55C697.201 319.276 696.871 319.956 696.329 320.442C695.787 320.928 695.075 321.183 694.348 321.151C693.802 321.123 693.276 320.933 692.838 320.606C692.399 320.278 692.068 319.828 691.886 319.313C691.703 318.797 691.678 318.239 691.814 317.709C691.949 317.179 692.239 316.701 692.646 316.336C693.053 315.97 693.56 315.734 694.101 315.657C694.643 315.58 695.195 315.666 695.688 315.903C696.181 316.14 696.592 316.518 696.87 316.989C697.148 317.46 697.28 318.004 697.249 318.55Z" fill="#2E3440"/>
<path d="M695.154 307.453L688.846 311.344C688.619 310.575 688.631 309.756 688.882 308.995C689.133 308.234 689.61 307.567 690.25 307.085C691.019 306.677 691.887 306.494 692.755 306.56C693.623 306.625 694.455 306.935 695.154 307.453Z" fill="#2E3440"/>
<path d="M718.705 308.397L724.575 313.001C724.884 312.262 724.958 311.444 724.784 310.661C724.611 309.878 724.201 309.168 723.608 308.627C722.896 308.13 722.057 307.845 721.19 307.804C720.322 307.763 719.461 307.969 718.705 308.397Z" fill="#2E3440"/>
<path d="M763.182 369.174L751.672 367.954L695.844 367.609C676.23 367.609 673.721 391.758 672.592 413.122C671.464 434.486 675.079 477.468 670.29 506.176L693.634 521.255L700.195 514.21L710.67 523.948C746.192 523.948 767.096 504.242 769.79 500.927L763.182 369.174Z" fill="#90CAF9"/>
<path opacity="0.2" d="M763.182 369.174L751.672 367.954L695.844 367.609C676.23 367.609 673.721 391.758 672.592 413.122C671.464 434.486 675.079 477.468 670.29 506.176L693.634 521.255L700.195 514.21L710.67 523.948C746.192 523.948 767.096 504.242 769.79 500.927L763.182 369.174Z" fill="white"/>
<path d="M705.007 375.022C699.781 391.689 703.05 414.918 705.007 425.37C718.267 407.137 730.676 388.835 734.567 381.629L716.149 372.65L705.007 375.022Z" fill="#434C5E"/>
<path d="M756.391 319.701C755.649 317.957 754.299 316.542 752.592 315.718C752.224 315.535 751.839 315.388 751.441 315.281C750.293 315.093 749.117 315.187 748.014 315.557C746.911 315.926 745.914 316.558 745.11 317.399C743.528 319.119 742.459 321.248 742.026 323.545C741.621 325.828 741.367 328.135 741.266 330.452C740.925 334.631 740.271 338.779 739.309 342.86C738.805 345.002 737.845 347.009 736.494 348.745C735.143 350.482 733.433 351.906 731.482 352.921L731.205 353.059C725.459 355.916 719.195 357.584 712.788 357.963V376.38L738.757 363.557C739.673 363.02 740.437 362.259 740.977 361.344C741.517 360.43 741.815 359.393 741.841 358.331C741.841 355.384 741.98 349.813 742.049 346.82C742.164 341.111 742.279 336.322 742.279 336.322C743.517 337.769 745.265 338.684 747.159 338.878C748.012 339.007 748.881 338.96 749.715 338.74C750.95 338.354 752.094 337.723 753.079 336.885C754.064 336.046 754.87 335.017 755.447 333.859C756.583 331.541 757.203 329.004 757.266 326.423C757.483 324.145 757.184 321.847 756.391 319.701Z" fill="#FFA8A7"/>
<path d="M734.912 352.691C736.445 350.729 737.536 348.459 738.112 346.037C736.689 348.984 734.367 351.402 731.482 352.944L731.205 353.082C725.459 355.939 719.195 357.607 712.788 357.986V362.59C716.488 362.254 720.136 361.481 723.654 360.288C728.048 358.868 731.951 356.234 734.912 352.691Z" fill="#F28F8F"/>
<path d="M712.742 390.331L708.138 389.226C705.908 395.05 704.047 401.009 702.567 407.068C703.053 413.244 703.86 419.392 704.984 425.485C707.585 421.917 710.141 418.325 712.627 414.826C711.84 406.678 711.879 398.471 712.742 390.331Z" fill="#90CAF9"/>
<path opacity="0.2" d="M712.535 391.275C712.535 390.976 712.535 390.63 712.535 390.331L707.931 389.226L707.677 389.917C708.408 390.58 709.295 391.048 710.256 391.275C711.007 391.432 711.783 391.432 712.535 391.275Z" fill="black"/>
<path d="M715.182 378.36L718.774 376.058L727.154 380.662C724.29 382.861 720.87 384.216 717.277 384.576L715.182 378.36Z" fill="#90CAF9"/>
<path d="M709.634 377.462L708.552 375.022L704.316 377.669C704.775 379.264 705.735 380.669 707.056 381.675L709.634 377.462Z" fill="#90CAF9"/>
<path opacity="0.2" d="M715.182 378.36L718.774 376.058L727.154 380.662C724.29 382.861 720.87 384.216 717.277 384.576L715.182 378.36Z" fill="black"/>
<path opacity="0.2" d="M709.634 377.462L708.552 375.022L704.316 377.669C704.775 379.264 705.735 380.669 707.056 381.675L709.634 377.462Z" fill="black"/>
<path d="M717.277 384.529C716.909 382.375 716.202 380.293 715.182 378.36L709.634 377.462C708.619 378.765 707.754 380.178 707.056 381.675C706.931 384.24 707.306 386.804 708.161 389.226C709.584 389.96 711.164 390.339 712.765 390.331C714.837 388.915 716.415 386.886 717.277 384.529Z" fill="#90CAF9"/>
<path d="M713.226 376.403C722.02 376.265 727.407 383.309 735.441 385.612L751.833 367.908L745.479 358.469C744.213 356.581 743.844 354.993 741.933 353.865V357.295C741.933 359.321 739.493 361.186 737.744 362.199L713.226 376.403Z" fill="#3B4252"/>
<path d="M713.226 376.403C708.345 374.883 701.047 381.007 701.047 381.007C703.603 366.872 711.315 361.301 713.203 361.301L713.226 376.403Z" fill="#3B4252"/>
<path opacity="0.2" d="M703.326 426.613L697.318 434.694C695.664 436.903 694.848 439.628 695.016 442.383L699.044 509.537L692.138 442.912C691.945 441.037 692.209 439.142 692.906 437.39C693.604 435.639 694.714 434.082 696.144 432.852L703.326 426.613Z" fill="black"/>
<path d="M792.696 504.311C788.706 502.449 785.247 499.615 782.636 496.069L778.699 502.976C773.519 500.881 768.063 499.062 762.906 496.967C761.68 496.364 760.336 496.042 758.97 496.023C758.282 496.026 757.614 496.253 757.066 496.668C756.518 497.083 756.12 497.664 755.931 498.325C755.906 499.039 756.057 499.748 756.37 500.39C756.683 501.032 757.149 501.588 757.726 502.009C760.409 504.626 763.525 506.761 766.935 508.317C762.247 512.697 756.781 516.164 750.82 518.538C748.939 519.186 747.12 520.002 745.387 520.978C743.651 521.999 742.373 523.647 741.818 525.583C741.643 526.855 741.759 528.15 742.158 529.37C742.557 530.59 743.228 531.704 744.121 532.627C746.094 534.743 748.498 536.412 751.171 537.52C753.843 538.628 756.723 539.15 759.614 539.05C765.419 538.806 771.053 537.018 775.936 533.87C780.8 530.742 785.349 527.149 789.519 523.142C795.055 518.174 800.083 512.668 804.529 506.705C800.452 506.838 796.401 506.018 792.696 504.311Z" fill="#FFA8A7"/>
<path d="M828.357 472.932C830.299 470.174 831.475 466.951 831.767 463.591C832.058 460.23 831.453 456.852 830.014 453.801C814.382 420.881 794.561 387.683 794.561 387.683C786.549 373.87 780.748 367.954 762.975 369.151C756.069 392.748 762.354 405.502 779.574 432.506L800.293 465.013L782.544 496.069C785.063 499.53 788.405 502.308 792.268 504.153C796.13 505.998 800.392 506.851 804.667 506.636L805.611 505.393L828.357 472.932Z" fill="#434C5E"/>
</svg>
