<svg width="999" height="840" viewBox="0 0 999 840" fill="none" xmlns="http://www.w3.org/2000/svg">
<path d="M155.833 763.682C348.708 864.447 661.433 864.447 854.331 763.682C1047.23 662.916 1047.21 499.555 854.331 398.79C661.456 298.024 348.708 298.001 155.81 398.79C-37.0878 499.578 -37.0648 662.916 155.833 763.682Z" fill="#FAFAFA"/>
<path d="M666.475 782.191C705.47 782.191 737.082 767.122 737.082 748.534C737.082 729.945 705.47 714.876 666.475 714.876C627.48 714.876 595.868 729.945 595.868 748.534C595.868 767.122 627.48 782.191 666.475 782.191Z" fill="#F0F0F0"/>
<path d="M114.348 166.502V282.301C114.348 286.099 117.019 287.665 120.334 285.754L389.18 130.519C390.92 129.382 392.368 127.852 393.408 126.053C394.447 124.253 395.049 122.235 395.165 120.16V4.26889C395.165 0.470324 392.472 -1.09514 389.18 0.815648L120.334 156.05C118.578 157.192 117.119 158.736 116.079 160.553C115.038 162.371 114.445 164.41 114.348 166.502V166.502Z" fill="#F0F0F0"/>
<path d="M133.065 164.683L213.64 118.18C217.347 116.039 220.317 117.765 220.317 122.024V202.991C220.19 205.3 219.519 207.547 218.359 209.547C217.199 211.548 215.582 213.246 213.64 214.502L133.065 261.029C129.381 263.147 126.388 261.42 126.388 257.161V176.24C126.513 173.924 127.183 171.671 128.343 169.662C129.503 167.654 131.121 165.948 133.065 164.683V164.683Z" fill="#FAFAFA"/>
<path d="M198.308 158.583L174.342 208.263L162.141 201.219C160.969 200.578 159.595 200.416 158.307 200.768C157.019 201.121 155.917 201.959 155.235 203.106L126.388 252.856V257.207C126.388 261.466 129.381 263.193 133.065 261.075L213.64 214.548C215.578 213.288 217.192 211.589 218.352 209.589C219.512 207.59 220.185 205.345 220.317 203.037V174.56L204.201 157.662C203.842 157.158 203.349 156.765 202.778 156.526C202.208 156.286 201.582 156.21 200.971 156.305C200.359 156.401 199.787 156.664 199.317 157.066C198.846 157.469 198.497 157.993 198.308 158.583V158.583Z" fill="#90CAF9"/>
<path d="M138.498 194.312C143.477 191.065 147.62 186.69 150.592 181.542C153.564 176.394 155.28 170.619 155.603 164.683C155.603 159.688 153.991 156.073 151.344 154.139L133.065 164.683C131.127 165.944 129.513 167.642 128.353 169.642C127.193 171.642 126.52 173.886 126.388 176.194V195.463C129.542 197.305 133.778 197.029 138.498 194.312Z" fill="#90CAF9"/>
<path d="M250.383 104.528L371.453 34.6113C374.216 33.0228 376.449 34.1509 376.449 37.1437C376.327 38.8208 375.812 40.4456 374.943 41.8857C374.075 43.3259 372.88 44.5408 371.453 45.4315L250.383 115.325C247.62 116.913 245.387 115.785 245.387 112.793C245.512 111.119 246.03 109.499 246.898 108.063C247.766 106.628 248.96 105.416 250.383 104.528Z" fill="#FAFAFA"/>
<path d="M250.383 128.447L371.453 58.5308C374.216 56.9423 376.449 58.0703 376.449 61.0631C376.327 62.7403 375.812 64.365 374.943 65.8052C374.075 67.2453 372.88 68.4602 371.453 69.3509L250.383 139.244C247.62 140.833 245.387 139.705 245.387 136.735C245.509 135.058 246.025 133.433 246.893 131.993C247.761 130.553 248.957 129.338 250.383 128.447V128.447Z" fill="#FAFAFA"/>
<path d="M250.383 152.367L371.453 82.4732C374.216 80.8847 376.449 82.0128 376.449 84.9826C376.327 86.6597 375.812 88.2844 374.943 89.7246C374.075 91.1647 372.88 92.3796 371.453 93.2703L250.383 163.164C247.62 164.775 245.387 163.647 245.387 160.655C245.509 158.977 246.025 157.353 246.893 155.912C247.761 154.472 248.957 153.257 250.383 152.367Z" fill="#FAFAFA"/>
<path d="M250.383 176.286L371.453 106.393C374.216 104.804 376.449 105.932 376.449 108.925C376.324 110.598 375.806 112.218 374.938 113.654C374.07 115.09 372.877 116.301 371.453 117.19L250.383 187.221C247.62 188.81 245.387 187.682 245.387 184.689C245.491 182.992 245.998 181.344 246.867 179.883C247.736 178.421 248.941 177.188 250.383 176.286V176.286Z" fill="#FAFAFA"/>
<path d="M58.1755 530.842V360.919C58.2862 358.843 58.8861 356.822 59.9263 355.022C60.9665 353.221 62.4176 351.692 64.1611 350.56L267.488 233.149C270.78 231.239 273.473 232.781 273.473 236.603V406.525C273.357 408.6 272.755 410.619 271.715 412.418C270.676 414.218 269.228 415.748 267.488 416.885L64.1611 534.295C60.846 536.206 58.1755 534.663 58.1755 530.842Z" fill="#F0F0F0"/>
<path d="M58.1755 522.347V530.842C58.1755 534.663 60.846 536.206 64.1611 534.295L267.488 416.885C269.228 415.748 270.676 414.218 271.715 412.418C272.755 410.619 273.357 408.6 273.473 406.525V398.007L58.1755 522.347Z" fill="#90CAF9"/>
<path d="M156.547 368.24L177.266 367.158C179.799 367.02 180.489 368.447 178.809 370.381L155.004 397.455C153.324 399.365 151.965 398.836 151.965 396.303V373.098C151.974 371.859 152.452 370.67 153.302 369.769C154.151 368.868 155.311 368.321 156.547 368.24Z" fill="#90CAF9"/>
<path d="M151.206 412.303C148.723 412.336 146.276 411.708 144.115 410.485C139.004 407.515 136.196 401.276 136.196 393.126C136.196 376.505 147.914 356.292 162.325 347.889C169.439 343.768 176.138 343.147 181.295 346.093C186.452 349.04 189.237 355.302 189.237 363.429C189.237 380.073 177.496 400.263 163.108 408.666C159.526 410.897 155.423 412.152 151.206 412.303V412.303ZM174.227 345.84C170.293 345.995 166.467 347.178 163.131 349.27C149.157 357.328 137.807 377.011 137.807 393.126C137.807 400.77 140.34 406.456 144.944 409.103C149.548 411.751 155.718 411.129 162.325 407.308C176.299 399.227 187.649 379.682 187.649 363.429C187.649 355.785 185.117 350.122 180.512 347.452C178.586 346.374 176.411 345.818 174.204 345.84H174.227Z" fill="#90CAF9"/>
<path d="M69.3871 203.014L56.7943 195.785C50.7856 191.757 42.4288 191.918 33.1971 197.259C14.7799 207.849 0 234.715 0 257.276V262.41C0 284.971 30.3424 309.466 30.3424 309.466L42.7281 316.488C42.7281 316.488 35.2921 307.993 36.1439 306.243C44.3626 289.575 66.3482 242.473 66.3482 224.056V218.922C66.3949 215.207 65.9222 211.503 64.9439 207.918L66.3482 208.724L69.3871 203.014ZM33.1741 254.744C23.9655 260.039 16.5755 255.734 16.5755 245.167C21.5022 244.384 33.9108 223.204 33.1741 216.413C42.3827 211.118 49.7496 215.423 49.7727 225.99C49.4607 231.75 47.7952 237.355 44.9112 242.351C42.0272 247.347 38.0061 251.593 33.1741 254.744Z" fill="#90CAF9"/>
<g opacity="0.2">
<path opacity="0.2" d="M69.3871 203.014L56.7943 195.785C50.7856 191.757 42.4288 191.918 33.1971 197.259C14.7799 207.849 0 234.715 0 257.276V262.41C0 284.971 30.3424 309.466 30.3424 309.466L42.7281 316.488C42.7281 316.488 35.2921 307.993 36.1439 306.243C44.3626 289.575 66.3482 242.473 66.3482 224.056V218.922C66.3949 215.207 65.9222 211.503 64.9439 207.918L66.3482 208.724L69.3871 203.014ZM33.1741 254.744C23.9655 260.039 16.5755 255.734 16.5755 245.167C21.5022 244.384 33.9108 223.204 33.1741 216.413C42.3827 211.118 49.7496 215.423 49.7727 225.99C49.4607 231.75 47.7952 237.355 44.9112 242.351C42.0272 247.347 38.0061 251.593 33.1741 254.744Z" fill="black"/>
</g>
<path d="M69.387 203.014C69.2494 202.916 69.103 202.832 68.9496 202.761C63.0331 199.446 55.1367 199.906 46.4345 204.925C33.3122 212.522 21.9626 228.43 16.5065 245.167C14.3965 251.534 13.2784 258.189 13.1913 264.896V270.099C13.1913 287.48 32.8748 307.647 41.9223 316.004C42.1181 316.179 42.3257 316.341 42.5439 316.488C42.5439 316.488 42.5439 316.488 42.5439 316.488C43.0759 316.813 43.6702 317.024 44.2886 317.106C44.9071 317.189 45.5358 317.14 46.1345 316.965C46.7331 316.789 47.2882 316.49 47.7642 316.086C48.2401 315.683 48.6263 315.184 48.8978 314.623C56.7252 298.508 79.4935 250.439 79.4935 231.745V226.611C79.6316 215.008 75.695 206.813 69.387 203.014ZM30.1352 256.148C29.9441 255.053 29.8516 253.944 29.859 252.833C30.163 247.07 31.8226 241.461 34.7028 236.461C37.583 231.46 41.6025 227.21 46.4345 224.056C47.3998 223.5 48.4083 223.023 49.4503 222.629C57.1856 219.82 63.0331 224.263 63.0331 233.633C62.723 239.39 61.0581 244.993 58.1738 249.986C55.2895 254.978 51.2673 259.219 46.4345 262.364C38.3079 267.106 31.5395 264.252 30.1352 256.148Z" fill="#90CAF9"/>
<path d="M63.0331 233.656C62.723 239.413 61.0581 245.016 58.1738 250.009C55.2895 255.001 51.2674 259.242 46.4345 262.387C38.3079 266.991 31.5396 264.252 30.1353 256.148C31.1902 255.777 32.2077 255.307 33.1741 254.744C38.0031 251.592 42.0207 247.345 44.9008 242.349C47.7808 237.353 49.4421 231.748 49.7496 225.99C49.7601 224.87 49.6599 223.752 49.4504 222.652C57.1856 219.843 63.0331 224.286 63.0331 233.656Z" fill="#90CAF9"/>
<g opacity="0.2">
<path opacity="0.2" d="M63.0331 233.656C62.723 239.413 61.0581 245.016 58.1738 250.009C55.2895 255.001 51.2674 259.242 46.4345 262.387C38.3079 266.991 31.5396 264.252 30.1353 256.148C31.1902 255.777 32.2077 255.307 33.1741 254.744C38.0031 251.592 42.0207 247.345 44.9008 242.349C47.7808 237.353 49.4421 231.748 49.7496 225.99C49.7601 224.87 49.6599 223.752 49.4504 222.652C57.1856 219.843 63.0331 224.286 63.0331 233.656Z" fill="black"/>
</g>
<path d="M304.921 519.492C304.921 519.492 313.232 466.542 294.768 421.006C276.305 375.469 251.419 372.66 238.527 379.129C225.635 385.598 233.922 410.853 245.433 427.82C260.766 450.082 286.089 498.013 285.261 541.063L304.921 519.492Z" fill="#90CAF9"/>
<path opacity="0.2" d="M304.921 519.492C304.921 519.492 313.232 466.542 294.768 421.006C276.305 375.469 251.419 372.66 238.527 379.129C225.635 385.598 233.922 410.853 245.433 427.82C260.766 450.082 286.089 498.013 285.261 541.063L304.921 519.492Z" fill="black"/>
<path d="M296.633 522.853C296.426 522.847 296.223 522.8 296.035 522.714C295.847 522.628 295.678 522.505 295.539 522.353C295.399 522.2 295.292 522.021 295.223 521.827C295.153 521.632 295.124 521.425 295.137 521.219C298.176 448.724 261.963 394.6 246.331 384.056C246.16 383.941 246.014 383.794 245.9 383.622C245.786 383.451 245.707 383.258 245.667 383.056C245.628 382.854 245.629 382.647 245.669 382.445C245.71 382.243 245.79 382.051 245.905 381.88C246.02 381.71 246.167 381.563 246.339 381.449C246.51 381.335 246.703 381.256 246.905 381.217C247.107 381.177 247.314 381.178 247.516 381.219C247.718 381.26 247.91 381.34 248.081 381.454C266.498 393.748 301.307 449.092 298.245 521.357C298.239 521.561 298.192 521.763 298.108 521.949C298.023 522.135 297.902 522.303 297.752 522.443C297.602 522.582 297.426 522.69 297.234 522.76C297.042 522.831 296.838 522.862 296.633 522.853Z" fill="white"/>
<path d="M301.652 582.364C298.498 574.444 290.348 565.604 269.422 556.165C248.495 546.726 232.748 534.134 229.848 525.017C228.975 522.499 228.861 519.78 229.519 517.197C230.178 514.615 231.581 512.283 233.554 510.49C233.554 510.49 213.825 508.188 211.338 496.102C208.23 480.862 225.473 479.872 225.473 479.872C225.473 479.872 202.843 448.01 196.835 433.829C190.826 419.647 197.755 418.795 212.351 424.206C226.947 429.616 254.757 456.85 259.062 465.161C259.062 465.161 266.59 455.952 274.694 462.007C282.797 468.062 283.189 486.18 278.4 492.718C281.629 492.116 284.964 492.464 287.999 493.718C291.035 494.972 293.642 497.08 295.505 499.785C303.747 510.582 306.463 537.587 306.463 537.587L301.652 582.364Z" fill="#90CAF9"/>
<path d="M303.125 574.997C302.776 574.993 302.437 574.873 302.162 574.656C301.888 574.44 301.692 574.139 301.606 573.8C290.417 527.181 237.307 452.775 204.317 429.109C204.149 428.99 204.006 428.838 203.897 428.664C203.788 428.489 203.714 428.295 203.679 428.092C203.645 427.889 203.651 427.681 203.698 427.48C203.744 427.28 203.829 427.09 203.948 426.922C204.068 426.754 204.219 426.612 204.394 426.502C204.568 426.393 204.762 426.319 204.966 426.285C205.169 426.251 205.376 426.257 205.577 426.303C205.778 426.349 205.968 426.434 206.135 426.554C239.54 450.519 293.318 525.869 304.668 573.063C304.758 573.469 304.685 573.894 304.466 574.247C304.246 574.6 303.897 574.852 303.494 574.951L303.125 574.997Z" fill="white"/>
<path d="M719.839 105.564C719.565 105.561 719.296 105.489 719.056 105.357L712.587 101.604C712.409 101.501 712.252 101.364 712.127 101.201C712.001 101.038 711.909 100.852 711.856 100.653C711.802 100.454 711.789 100.247 711.815 100.043C711.842 99.8384 711.909 99.6415 712.012 99.4631C712.114 99.2848 712.251 99.1284 712.414 99.0029C712.578 98.8775 712.764 98.7854 712.963 98.732C713.162 98.6785 713.369 98.6648 713.573 98.6915C713.777 98.7182 713.974 98.7848 714.153 98.8876L720.622 102.64C720.8 102.743 720.957 102.88 721.082 103.043C721.208 103.206 721.3 103.392 721.354 103.591C721.407 103.79 721.421 103.998 721.394 104.202C721.367 104.406 721.3 104.603 721.197 104.781C721.06 105.019 720.861 105.217 720.623 105.355C720.385 105.492 720.114 105.564 719.839 105.564V105.564Z" fill="white"/>
<path d="M301.652 242.059V584.574C301.652 588.395 304.322 589.938 307.614 588.027L707.131 357.374C708.871 356.237 710.319 354.707 711.359 352.907C712.398 351.108 713 349.089 713.117 347.014V4.49909C713.117 0.677512 710.423 -0.864935 707.131 1.04586L307.614 231.699C305.876 232.836 304.431 234.366 303.395 236.166C302.359 237.966 301.762 239.985 301.652 242.059V242.059Z" fill="#455A64"/>
<path d="M348.409 305.322C348.409 317.27 357.318 321.783 368.345 315.429L685.053 132.568V89.3797L368.345 272.217C357.318 278.594 348.409 293.397 348.409 305.322Z" fill="#F5F5F5"/>
<path d="M711.989 73.8862C722.993 67.5322 731.925 72.0444 731.925 83.9696C731.925 95.8948 722.993 110.721 711.989 117.075L685.168 132.568V89.3797L711.989 73.8862Z" fill="#90CAF9"/>
<path d="M702.319 110.283C701.173 110.3 700.043 110.005 699.05 109.431C697.827 108.613 696.848 107.479 696.216 106.15C695.584 104.821 695.322 103.346 695.459 101.88C695.625 98.2771 696.652 94.766 698.454 91.6416C700.257 88.5172 702.782 85.8705 705.819 83.9236C706.978 82.978 708.398 82.4078 709.889 82.2888C711.38 82.1698 712.873 82.5077 714.167 83.2574C715.462 84.0072 716.497 85.1333 717.136 86.486C717.775 87.8387 717.987 89.3539 717.744 90.83C717.573 94.432 716.543 97.941 714.741 101.065C712.939 104.188 710.417 106.836 707.384 108.787C705.856 109.721 704.11 110.237 702.319 110.283V110.283ZM710.861 85.5351C709.626 85.5961 708.428 85.9769 707.384 86.6401C704.842 88.3293 702.724 90.5843 701.199 93.2283C699.673 95.8723 698.78 98.8337 698.59 101.88C698.352 102.797 698.422 103.767 698.789 104.64C699.155 105.513 699.798 106.242 700.618 106.715C701.439 107.188 702.392 107.379 703.331 107.258C704.271 107.138 705.144 106.712 705.819 106.047C708.364 104.361 710.483 102.106 712.009 99.4618C713.535 96.8173 714.426 93.8546 714.613 90.807C714.731 89.8942 714.606 88.9663 714.25 88.1174C713.894 87.2684 713.321 86.5285 712.587 85.9725C712.062 85.6719 711.465 85.5206 710.861 85.5351V85.5351Z" fill="white"/>
<path d="M716.593 168.413L410.406 345.08C408.66 346.211 407.207 347.739 406.166 349.54C405.125 351.341 404.527 353.363 404.42 355.44V449.667C404.42 453.489 407.091 455.031 410.406 453.121L716.593 276.384C718.336 275.251 719.787 273.722 720.828 271.922C721.868 270.121 722.468 268.101 722.578 266.024V171.866C722.463 168.044 719.793 166.502 716.593 168.413Z" fill="#90CAF9"/>
<path opacity="0.2" d="M716.593 168.413L410.406 345.08C408.66 346.211 407.207 347.739 406.166 349.54C405.125 351.341 404.527 353.363 404.42 355.44V449.667C404.42 453.489 407.091 455.031 410.406 453.121L716.593 276.384C718.336 275.251 719.787 273.722 720.828 271.922C721.868 270.121 722.468 268.101 722.578 266.024V171.866C722.463 168.044 719.793 166.502 716.593 168.413Z" fill="white"/>
<path d="M521.715 296.528L577.197 264.482C579.96 262.893 582.193 264.021 582.193 267.014C582.068 268.687 581.55 270.308 580.682 271.743C579.814 273.179 578.62 274.39 577.197 275.279L521.715 307.325C518.953 308.913 516.719 307.785 516.719 304.793C516.845 303.12 517.362 301.499 518.23 300.063C519.098 298.628 520.292 297.416 521.715 296.528V296.528Z" fill="white"/>
<path d="M516.719 326.387C516.719 329.38 519.022 330.508 521.715 328.919L689.427 232.09C690.848 231.196 692.038 229.979 692.902 228.54C693.766 227.1 694.279 225.477 694.4 223.803C694.4 220.833 692.098 219.705 689.427 221.293L521.715 318.122C520.292 319.011 519.098 320.222 518.23 321.658C517.362 323.094 516.845 324.714 516.719 326.387Z" fill="white"/>
<path d="M516.719 347.981C516.719 350.974 519.022 352.102 521.715 350.513L689.427 253.685C690.848 252.79 692.038 251.574 692.902 250.134C693.766 248.694 694.279 247.072 694.4 245.397C694.4 242.427 692.098 241.299 689.427 242.888L521.715 339.716C520.292 340.605 519.098 341.816 518.23 343.252C517.362 344.688 516.845 346.308 516.719 347.981Z" fill="white"/>
<path d="M516.719 369.575C516.719 372.568 519.022 373.696 521.715 372.108L689.427 275.279C690.848 274.384 692.038 273.168 692.902 271.728C693.766 270.288 694.279 268.666 694.4 266.991C694.4 264.021 692.098 262.893 689.427 264.482L521.715 361.311C520.292 362.199 519.098 363.41 518.23 364.846C517.362 366.282 516.845 367.902 516.719 369.575V369.575Z" fill="white"/>
<path d="M419.845 350.467L492.04 308.775C495.355 306.888 498.026 308.43 498.026 312.229V384.816C497.913 386.892 497.313 388.912 496.273 390.712C495.233 392.512 493.783 394.041 492.04 395.175L419.845 436.844C416.553 438.755 413.859 437.213 413.859 433.414V360.827C413.97 358.751 414.57 356.73 415.61 354.93C416.65 353.129 418.101 351.6 419.845 350.467V350.467Z" fill="white"/>
<path d="M478.319 345.011L456.84 389.535L445.905 383.227C444.849 382.618 443.593 382.452 442.415 382.767C441.237 383.083 440.232 383.852 439.62 384.908L413.859 429.501V433.391C413.859 437.213 416.553 438.755 419.845 436.844L492.04 395.175C493.784 394.043 495.235 392.514 496.275 390.713C497.315 388.913 497.915 386.892 498.026 384.816V359.331L483.499 344.183C483.17 343.759 482.733 343.432 482.235 343.236C481.736 343.039 481.194 342.98 480.664 343.065C480.135 343.15 479.638 343.375 479.226 343.717C478.813 344.06 478.5 344.507 478.319 345.011V345.011Z" fill="#90CAF9"/>
<path d="M424.702 377.034C429.166 374.122 432.88 370.199 435.544 365.584C438.208 360.968 439.746 355.789 440.035 350.467C440.188 348.701 439.922 346.923 439.257 345.279C438.593 343.634 437.55 342.17 436.213 341.006L419.845 350.467C418.101 351.6 416.65 353.129 415.61 354.93C414.57 356.73 413.97 358.751 413.859 360.827V378.093C416.645 379.705 420.466 379.475 424.702 377.034Z" fill="#90CAF9"/>
<path d="M716.593 308.775L410.406 485.443C408.662 486.576 407.211 488.105 406.171 489.905C405.131 491.706 404.531 493.726 404.42 495.803V590.099C404.42 593.898 407.091 595.44 410.406 593.552L716.593 416.77C718.336 415.637 719.787 414.108 720.828 412.307C721.868 410.507 722.468 408.486 722.578 406.41V312.229C722.463 308.43 719.793 306.934 716.593 308.775Z" fill="#90CAF9"/>
<path opacity="0.2" d="M716.593 308.775L410.406 485.443C408.662 486.576 407.211 488.105 406.171 489.905C405.131 491.706 404.531 493.726 404.42 495.803V590.099C404.42 593.898 407.091 595.44 410.406 593.552L716.593 416.77C718.336 415.637 719.787 414.108 720.828 412.307C721.868 410.507 722.468 408.486 722.578 406.41V312.229C722.463 308.43 719.793 306.934 716.593 308.775Z" fill="white"/>
<path d="M521.715 436.89L577.197 404.867C579.96 403.279 582.193 404.407 582.193 407.377C582.071 409.054 581.555 410.679 580.687 412.119C579.819 413.559 578.623 414.774 577.197 415.665L521.715 447.688C518.953 449.276 516.719 448.148 516.719 445.178C516.841 443.501 517.357 441.876 518.225 440.436C519.093 438.996 520.289 437.781 521.715 436.89Z" fill="white"/>
<path d="M516.719 466.772C516.719 469.742 519.022 470.87 521.715 469.282L689.427 372.453C690.845 371.561 692.034 370.348 692.897 368.912C693.761 367.477 694.276 365.859 694.4 364.188C694.4 361.195 692.098 360.067 689.427 361.656L521.715 458.485C520.289 459.375 519.093 460.59 518.225 462.03C517.357 463.471 516.841 465.095 516.719 466.772Z" fill="white"/>
<path d="M516.719 488.367C516.719 491.337 519.022 492.465 521.715 490.876L689.427 394.047C690.845 393.155 692.034 391.942 692.897 390.507C693.761 389.071 694.276 387.453 694.4 385.783C694.4 382.79 692.098 381.662 689.427 383.25L521.715 480.079C520.289 480.97 519.093 482.185 518.225 483.625C517.357 485.065 516.841 486.69 516.719 488.367Z" fill="white"/>
<path d="M516.719 509.961C516.719 512.931 519.022 514.059 521.715 512.47L689.427 415.642C690.845 414.749 692.034 413.536 692.897 412.101C693.761 410.666 694.276 409.047 694.4 407.377C694.4 404.384 692.098 403.256 689.427 404.844L521.715 501.673C520.289 502.564 519.093 503.779 518.225 505.219C517.357 506.659 516.841 508.284 516.719 509.961Z" fill="white"/>
<path d="M419.845 490.853L492.04 449.161C495.355 447.25 498.026 448.793 498.026 452.614V525.178C497.919 527.255 497.321 529.278 496.28 531.079C495.24 532.879 493.786 534.408 492.04 535.538L419.845 577.23C416.553 579.141 413.859 577.598 413.859 573.777V501.213C413.97 499.136 414.57 497.116 415.61 495.315C416.65 493.515 418.101 491.986 419.845 490.853V490.853Z" fill="white"/>
<path d="M478.319 485.397L456.84 529.921L445.905 523.59C445.381 523.289 444.802 523.094 444.202 523.017C443.602 522.94 442.993 522.982 442.41 523.14C441.826 523.298 441.279 523.57 440.801 523.939C440.322 524.309 439.921 524.769 439.62 525.293L413.859 569.886V573.777C413.859 577.598 416.553 579.141 419.845 577.23L492.04 535.538C493.783 534.41 495.235 532.885 496.275 531.089C497.315 529.292 497.915 527.275 498.026 525.201V499.693L483.499 484.568C483.174 484.138 482.738 483.804 482.238 483.603C481.738 483.402 481.193 483.34 480.66 483.425C480.128 483.511 479.629 483.739 479.216 484.087C478.804 484.434 478.494 484.887 478.319 485.397V485.397Z" fill="#90CAF9"/>
<path d="M424.702 517.397C429.165 514.49 432.88 510.571 435.544 505.959C438.208 501.347 439.746 496.172 440.035 490.853C440.188 489.086 439.922 487.309 439.257 485.664C438.593 484.02 437.55 482.556 436.213 481.391L419.845 490.853C418.101 491.986 416.65 493.515 415.61 495.315C414.57 497.116 413.97 499.137 413.859 501.213V518.479C416.645 520.068 420.466 519.837 424.702 517.397Z" fill="#90CAF9"/>
<path d="M713.117 19.1639V4.49909C713.117 0.677512 710.423 -0.864935 707.131 1.04586L307.637 231.699C305.894 232.832 304.443 234.361 303.403 236.161C302.362 237.962 301.762 239.983 301.652 242.059V256.747L713.117 19.1639Z" fill="#90CAF9"/>
<path d="M664.104 31.5034C662.816 32.3491 661.745 33.4856 660.977 34.8212C660.209 36.1568 659.766 37.6542 659.683 39.1926C659.683 42.0243 661.663 43.1753 664.104 41.748C665.399 40.914 666.478 39.7839 667.25 38.451C668.023 37.118 668.467 35.6204 668.547 34.0818C668.547 31.2502 666.567 30.0991 664.104 31.5034Z" fill="#F5F5F5"/>
<path d="M681.715 21.466C680.423 22.3091 679.348 23.4445 678.576 24.7803C677.804 26.1161 677.357 27.6148 677.272 29.1552C677.272 31.9869 679.275 33.1149 681.715 31.7106C683.011 30.8716 684.089 29.7372 684.862 28.4006C685.634 27.0639 686.079 25.5631 686.158 24.0214C686.158 21.0747 684.178 19.9466 681.715 21.466Z" fill="#F5F5F5"/>
<path d="M699.327 11.1984C698.031 12.0324 696.953 13.1625 696.18 14.4954C695.408 15.8284 694.963 17.326 694.883 18.8646C694.883 21.6962 696.863 22.8473 699.327 21.443C700.614 20.5973 701.685 19.4609 702.453 18.1252C703.221 16.7896 703.664 15.2922 703.747 13.7538C703.747 10.9221 701.767 9.77105 699.327 11.1984Z" fill="#F5F5F5"/>
<path d="M719.494 733.339C720.19 735.109 720.669 736.956 720.921 738.841C721.57 740.792 721.72 742.873 721.358 744.896C719.807 747.479 717.342 749.386 714.452 750.237C712.395 750.711 710.262 750.751 708.189 750.354C706.116 749.958 704.149 749.134 702.412 747.935C698.199 745.426 695.045 742.364 689.059 740.683C684.79 739.764 680.77 737.934 677.272 735.319C673.957 732.672 669.537 725.305 675.868 723.601C682.199 721.898 695.989 727.906 708.535 728.459L719.494 733.339Z" fill="#2E3440"/>
<path d="M718.895 725.052C718.895 725.052 719.632 733.846 719.632 734.928C719.632 737.898 708.673 741.834 706.648 734.928L704.898 725.581L718.895 725.052Z" fill="#F28F8F"/>
<path d="M705.45 532.108C709.218 537.648 712.669 543.397 715.787 549.328C715.787 549.328 716.869 562.128 716.869 570.646C716.869 586.301 714.452 598.387 712.265 629.236C715.826 635.304 717.864 642.145 718.204 649.172C719.125 663.147 719.148 662.985 719.24 727.446C717.143 728.577 714.841 729.278 712.469 729.508C710.097 729.737 707.703 729.49 705.427 728.781L684.708 638.513L682.406 603.083L675.914 559.043L705.45 532.108Z" fill="#37474F"/>
<path d="M656.414 749.478C657.151 750.237 656.898 751.78 657.243 754.312C657.626 756.26 657.727 758.252 657.543 760.229C656.334 762.966 654.152 765.157 651.419 766.375C649.432 767.092 647.318 767.39 645.211 767.251C643.103 767.113 641.047 766.54 639.171 765.57C634.705 763.59 631.183 760.965 625.036 760.021C620.686 759.647 616.469 758.335 612.673 756.177C609.059 753.875 603.741 747.198 609.819 744.666C615.896 742.134 631.137 746.669 643.637 745.656L656.414 749.478Z" fill="#2E3440"/>
<path d="M659.292 738.427C659.292 738.427 656.99 748.465 656.368 750.698C654.987 756.062 643.085 756.338 643.085 750.145L643.891 735.872L659.292 738.427Z" fill="#F28F8F"/>
<path d="M678.584 534.847C684.547 546.565 690.302 556.902 690.486 569.38C690.924 595.785 679.966 624.862 675.937 643.947C677.137 650.854 677.477 657.883 676.95 664.873C676.144 672.862 657.934 745.449 657.934 745.449C657.934 745.449 647.804 747.567 643.499 742.985L648.61 603.221L649.991 562.634L678.584 534.847Z" fill="#37474F"/>
<path d="M670.389 463.273L674.141 484.062L692.927 482.68L688.99 459.129L670.389 463.273Z" fill="#FFA8A7"/>
<path d="M712.748 481.161C710.883 475.521 703.724 469.374 696.633 470.709C685.983 472.519 675.486 475.136 665.232 478.537C658.671 480.839 652.685 486.571 652.132 508.165L650.083 562.496C652.921 565.019 656.324 566.819 660.006 567.745C669.974 570.485 676.558 572.119 691.707 568.804C711.436 564.499 716.132 552.551 716.132 552.551C716.132 552.551 715.373 523.797 714.774 508.165C714.291 494.882 714.014 485.052 712.748 481.161Z" fill="#455A64"/>
<path d="M662.377 436.729L566.722 410.784C558.066 409.288 554.452 430.421 563.108 431.895L661.341 441.817L662.377 436.729Z" fill="#2E3440"/>
<path d="M634.866 480.562L615.321 481.161C615.321 481.161 618.268 452.085 620.086 448.263C621.905 444.442 626.256 443.659 630.584 442.439C634.912 441.219 634.889 439.147 634.889 439.147L630.999 438.755C627.591 438.41 626.233 434.151 627.707 431.273C628.42 429.938 629.571 427.82 631.643 428.396L636.8 429.8C636.88 427.525 636.313 425.274 635.166 423.308C633.439 421.397 632.288 421.995 628.835 420.798C626.279 419.901 621.053 418.312 616.84 420.039C612.627 421.765 609.427 429.685 608.345 435.279C607.251 441.748 605.476 448.083 603.05 454.18C599.298 464.539 593.842 485.811 593.266 494.329C593.013 498.266 593.381 500.614 597.755 501.65C602.13 502.686 634.314 502.755 634.314 502.755L634.866 480.562Z" fill="#FFA8A7"/>
<path d="M656.484 438.663C656.484 438.663 651.879 445.385 652.524 446.122C653.564 446.816 654.717 447.322 655.931 447.618L656.484 438.663Z" fill="#FFA8A7"/>
<path d="M670.366 417.437C665.991 419.739 658.44 423.722 656.345 439.745C654.204 456.183 657.036 461.477 659.246 463.665C660.765 465.138 668.915 465.23 673.059 463.987C678.17 462.467 689.704 458.07 694.976 449.621C701.168 439.676 702.55 426.37 695.574 421.075C692.025 418.382 687.849 416.636 683.44 415.999C679.03 415.363 674.531 415.858 670.366 417.437V417.437Z" fill="#FFA8A7"/>
<path d="M683.235 615.814L693.203 587.636C700.93 584.897 707.853 580.276 713.347 574.191C713.347 574.191 711.045 582.226 695.298 590.467L684.363 617.126V631.952L683.235 615.814Z" fill="#2E3440"/>
<path d="M655.448 422.847C656.875 426.784 659.292 436.453 669.376 440.482C669.376 440.482 670.826 434.335 675.983 434.98C681.14 435.624 682.037 442.231 678.86 446.329C675.683 450.427 672.599 448.954 672.599 448.954C672.599 448.954 671.908 457.771 677.801 461.777C679.996 463.071 682.46 463.837 685.001 464.017C687.541 464.197 690.089 463.785 692.443 462.813C695.827 461.27 700.639 453.144 703.448 446.467C709.387 432.378 710.239 421.144 701.145 417.506C700.017 411.106 697.14 408.689 691.338 407.492C678.86 404.936 669.422 413.132 658.947 411.682C653.583 410.922 653.79 418.335 655.448 422.847Z" fill="#2E3440"/>
<path d="M701.445 419.739L707.338 416.079C706.825 415.361 706.057 414.865 705.191 414.693C704.326 414.52 703.427 414.683 702.677 415.148C701.927 415.614 701.382 416.348 701.153 417.2C700.925 418.053 701.029 418.961 701.445 419.739V419.739Z" fill="#2E3440"/>
<path d="M630.492 480.171C630.492 480.171 658.003 478.583 665.025 478.537C672.046 478.49 679.505 490.485 675.131 498.657C672.23 504.021 663.183 505.863 651.787 506.416C640.391 506.968 628.904 506.968 628.904 506.968C628.904 506.968 618.659 495.296 630.492 480.171Z" fill="#455A64"/>
<path d="M652.132 506.416C652.132 506.416 669.56 506.185 675.269 498.657C675.269 498.657 673.934 503.262 667.166 506.093C662.315 507.958 657.205 509.06 652.017 509.362L652.132 506.416Z" fill="#37474F"/>
<path d="M566.722 410.784C558.066 409.288 554.452 430.421 563.108 431.895L576.921 433.276C571.304 432.701 575.194 413.063 579.476 414.214L566.722 410.784Z" fill="#455A64"/>
<path d="M915.085 405.144C915.087 409.429 913.797 413.616 911.383 417.157C908.97 420.699 905.545 423.43 901.556 424.996C897.567 426.562 893.198 426.889 889.021 425.935C884.843 424.981 881.049 422.79 878.135 419.647L876.731 417.944C873.454 413.574 871.98 408.113 872.612 402.688C873.244 397.262 875.934 392.287 880.128 388.787C884.321 385.288 889.698 383.531 895.149 383.88C900.6 384.229 905.709 386.657 909.422 390.663L910.872 392.413C913.606 396.094 915.083 400.558 915.085 405.144V405.144Z" fill="#455A64"/>
<path d="M915.085 405.144C915.087 409.429 913.797 413.616 911.383 417.157C908.97 420.698 905.545 423.43 901.556 424.996C897.567 426.562 893.199 426.889 889.021 425.935C884.843 424.981 881.049 422.79 878.135 419.647L876.731 417.944L787.96 310.732L825.37 289.138L909.422 390.617L910.872 392.367C913.616 396.061 915.093 400.542 915.085 405.144V405.144Z" fill="#455A64"/>
<path d="M841.646 375.561C845.374 379.471 850.448 381.82 855.841 382.133C861.235 382.445 866.546 380.698 870.701 377.245C874.856 373.792 877.545 368.89 878.224 363.53C878.903 358.171 877.522 352.753 874.36 348.372V348.372L863.379 335.135C866.661 339.507 868.138 344.973 867.505 350.403C866.872 355.833 864.176 360.812 859.976 364.312C855.776 367.811 850.393 369.564 844.937 369.206C839.482 368.849 834.373 366.41 830.665 362.393L841.646 375.561Z" fill="#90CAF9"/>
<path d="M823.943 120.597C830.644 121.343 837.123 123.45 842.981 126.79L815.977 111.089C797.859 98.6343 771.776 99.371 742.791 116.085C688.069 147.693 643.683 224.562 643.683 287.78C643.683 318.836 654.25 341.029 671.678 351.572L672.046 351.803L700.869 368.401C695.758 365.076 691.302 360.838 687.724 355.901C694.825 356.678 702.007 356.266 708.973 354.68C711.505 354.128 714.06 353.46 716.662 352.631C716.322 352.529 715.99 352.398 715.672 352.24C714.287 351.591 712.961 350.821 711.712 349.938C709.446 348.359 707.429 346.45 705.727 344.275C703.4 341.296 701.508 338.002 700.109 334.49C698.234 334.762 696.341 334.9 694.446 334.905C689.965 334.995 685.519 334.107 681.416 332.303C680.457 331.864 679.526 331.364 678.63 330.807C677.825 330.301 677.019 329.702 676.328 329.103C674.663 321.311 673.852 313.36 673.911 305.391C673.911 242.197 718.296 165.305 773.065 133.696C780.057 129.617 787.466 126.298 795.166 123.797C797.24 124.645 799.191 125.767 800.967 127.135C802.847 128.577 804.541 130.248 806.009 132.108C808.343 135.093 810.242 138.396 811.649 141.915C813.533 141.651 815.433 141.52 817.335 141.524C822.541 141.384 827.689 142.631 832.253 145.138C833.408 145.767 834.51 146.491 835.545 147.302C835.131 145.46 834.694 143.642 834.164 141.915C832.085 134.245 828.62 127.021 823.943 120.597V120.597Z" fill="#2E3440"/>
<path d="M842.981 126.79L841.416 125.938C835.974 123.088 830.048 121.276 823.943 120.597C817.39 119.866 810.764 120.169 804.305 121.495C801.194 122.084 798.119 122.853 795.096 123.797C787.397 126.298 779.988 129.617 772.996 133.696C718.227 165.305 673.842 242.197 673.842 305.391C673.783 313.36 674.594 321.311 676.259 329.103C676.558 330.508 676.904 331.843 677.249 333.178C679.3 341.327 682.861 349.018 687.747 355.854C689.928 358.863 692.438 361.62 695.229 364.073C697.009 365.638 698.901 367.069 700.892 368.355C718.964 380.027 744.633 379.014 772.95 362.623C827.718 331.014 872.104 254.145 872.104 190.928C872.081 159.319 860.961 137.103 842.981 126.79ZM832.161 145.207C833.316 145.836 834.417 146.56 835.453 147.371C837.189 148.781 838.771 150.371 840.173 152.113C847.079 160.77 850.74 174.237 850.74 190.997C850.74 246.249 810.222 316.511 762.268 344.206C750.181 351.112 738.555 354.888 728.679 354.888C724.559 354.936 720.472 354.153 716.662 352.585C716.322 352.483 715.99 352.352 715.672 352.194C714.287 351.545 712.961 350.775 711.712 349.892C710.159 348.802 708.723 347.552 707.43 346.162V346.162C706.855 345.564 706.302 344.896 705.75 344.229C703.423 341.25 701.531 337.956 700.132 334.444C696.626 325.154 694.952 315.272 695.206 305.345C695.206 304.608 695.206 303.895 695.206 303.043C696.219 248.021 736.299 179.348 783.632 152.044C784.714 151.423 785.819 150.801 786.924 150.226C794.557 145.962 802.892 143.1 811.534 141.777C813.418 141.513 815.318 141.382 817.22 141.385C821.316 141.35 825.379 142.133 829.168 143.688C830.207 144.1 831.208 144.601 832.161 145.184V145.207Z" fill="#455A64"/>
<path opacity="0.6" d="M841.485 184.597C841.485 239.849 800.967 310.111 753.013 337.806C740.927 344.712 729.324 348.488 719.425 348.488C715.312 348.536 711.232 347.753 707.43 346.185V346.185C706.855 345.587 706.302 344.919 705.75 344.252C703.423 341.273 701.531 337.979 700.132 334.467C696.626 325.177 694.952 315.295 695.206 305.368C695.206 304.631 695.206 303.918 695.206 303.066C696.219 248.044 736.299 179.371 783.632 152.067C784.714 151.446 785.819 150.824 786.924 150.249C794.557 145.985 802.892 143.124 811.534 141.8C813.418 141.536 815.318 141.405 817.22 141.408C821.316 141.373 825.379 142.156 829.168 143.711C829.79 144.332 830.366 145 830.918 145.667C837.825 154.37 841.485 167.837 841.485 184.597Z" fill="white"/>
</svg>
