<svg width="64" height="64" viewBox="0 0 64 64" fill="none" xmlns="http://www.w3.org/2000/svg">
<circle cx="32" cy="32" r="32" fill="#90CAF9"/>
<path d="M21.5 32H32V33.75H21.5V32Z" fill="white"/>
<path d="M19.75 27.625H28.5V29.375H19.75V27.625Z" fill="white"/>
<path d="M44.1791 32.5303L41.5541 26.4053C41.4868 26.2478 41.3746 26.1136 41.2317 26.0194C41.0887 25.9251 40.9212 25.8749 40.75 25.875H38.125V24.125C38.125 23.8929 38.0328 23.6704 37.8687 23.5063C37.7046 23.3422 37.4821 23.25 37.25 23.25H23.25V25H36.375V35.9865C35.9763 36.218 35.6274 36.5262 35.3483 36.8932C35.0693 37.2603 34.8657 37.6789 34.7493 38.125H29.2508C29.0378 37.3002 28.5313 36.5813 27.8262 36.1032C27.1212 35.6251 26.266 35.4206 25.4209 35.5279C24.5758 35.6352 23.7989 36.0471 23.2357 36.6863C22.6726 37.3255 22.3619 38.1481 22.3619 39C22.3619 39.8519 22.6726 40.6745 23.2357 41.3137C23.7989 41.9529 24.5758 42.3648 25.4209 42.4721C26.266 42.5794 27.1212 42.3749 27.8262 41.8968C28.5313 41.4187 29.0378 40.6998 29.2508 39.875H34.7493C34.9396 40.626 35.3749 41.292 35.9863 41.7678C36.5977 42.2435 37.3503 42.5019 38.125 42.5019C38.8997 42.5019 39.6523 42.2435 40.2637 41.7678C40.8751 41.292 41.3104 40.626 41.5008 39.875H43.375C43.6071 39.875 43.8296 39.7828 43.9937 39.6187C44.1578 39.4546 44.25 39.2321 44.25 39V32.875C44.25 32.7565 44.2259 32.6392 44.1791 32.5303V32.5303ZM25.875 40.75C25.5289 40.75 25.1905 40.6474 24.9028 40.4551C24.615 40.2628 24.3907 39.9895 24.2582 39.6697C24.1258 39.3499 24.0911 38.9981 24.1586 38.6586C24.2262 38.3191 24.3928 38.0073 24.6376 37.7626C24.8823 37.5178 25.1941 37.3512 25.5336 37.2836C25.8731 37.2161 26.2249 37.2508 26.5447 37.3832C26.8645 37.5157 27.1378 37.74 27.3301 38.0278C27.5224 38.3155 27.625 38.6539 27.625 39C27.6245 39.464 27.44 39.9088 27.1119 40.2369C26.7838 40.565 26.339 40.7495 25.875 40.75V40.75ZM38.125 27.625H40.1725L42.0485 32H38.125V27.625ZM38.125 40.75C37.7789 40.75 37.4405 40.6474 37.1528 40.4551C36.865 40.2628 36.6407 39.9895 36.5082 39.6697C36.3758 39.3499 36.3411 38.9981 36.4086 38.6586C36.4762 38.3191 36.6428 38.0073 36.8876 37.7626C37.1323 37.5178 37.4441 37.3512 37.7836 37.2836C38.1231 37.2161 38.4749 37.2508 38.7947 37.3832C39.1145 37.5157 39.3878 37.74 39.5801 38.0278C39.7724 38.3155 39.875 38.6539 39.875 39C39.8745 39.464 39.69 39.9088 39.3619 40.2369C39.0338 40.565 38.589 40.7495 38.125 40.75ZM42.5 38.125H41.5008C41.308 37.3755 40.872 36.7112 40.2611 36.2361C39.6502 35.7611 38.8989 35.5022 38.125 35.5V33.75H42.5V38.125Z" fill="white"/>
</svg>
