<svg width="74" height="13" viewBox="0 0 74 13" fill="none" xmlns="http://www.w3.org/2000/svg">
<path d="M9.26562 12H6.92188L2.35938 4.51562V12H0.015625V0.625H2.35938L6.92969 8.125V0.625H9.26562V12ZM13.6562 7.99219V12H11.3125V0.625H15.75C16.6042 0.625 17.3542 0.78125 18 1.09375C18.651 1.40625 19.151 1.85156 19.5 2.42969C19.849 3.0026 20.0234 3.65625 20.0234 4.39062C20.0234 5.50521 19.6406 6.38542 18.875 7.03125C18.1146 7.67188 17.0599 7.99219 15.7109 7.99219H13.6562ZM13.6562 6.09375H15.75C16.3698 6.09375 16.8411 5.94792 17.1641 5.65625C17.4922 5.36458 17.6562 4.94792 17.6562 4.40625C17.6562 3.84896 17.4922 3.39844 17.1641 3.05469C16.8359 2.71094 16.3828 2.53385 15.8047 2.52344H13.6562V6.09375ZM30.5703 8.21094C30.4818 9.4349 30.0286 10.3984 29.2109 11.1016C28.3984 11.8047 27.3255 12.1562 25.9922 12.1562C24.5339 12.1562 23.3854 11.6667 22.5469 10.6875C21.7135 9.70312 21.2969 8.35417 21.2969 6.64062V5.94531C21.2969 4.85156 21.4896 3.88802 21.875 3.05469C22.2604 2.22135 22.8099 1.58333 23.5234 1.14062C24.2422 0.692708 25.0755 0.46875 26.0234 0.46875C27.3359 0.46875 28.3932 0.820312 29.1953 1.52344C29.9974 2.22656 30.4609 3.21354 30.5859 4.48438H28.2422C28.1849 3.75 27.9792 3.21875 27.625 2.89062C27.276 2.55729 26.7422 2.39062 26.0234 2.39062C25.2422 2.39062 24.6562 2.67188 24.2656 3.23438C23.8802 3.79167 23.6823 4.65885 23.6719 5.83594V6.69531C23.6719 7.92448 23.8568 8.82292 24.2266 9.39062C24.6016 9.95833 25.1901 10.2422 25.9922 10.2422C26.7161 10.2422 27.2552 10.0781 27.6094 9.75C27.9688 9.41667 28.1745 8.90365 28.2266 8.21094H30.5703ZM41.9922 9.01562C41.9922 8.57292 41.8359 8.23438 41.5234 8C41.2109 7.76042 40.6484 7.51042 39.8359 7.25C39.0234 6.98438 38.3802 6.72396 37.9062 6.46875C36.6146 5.77083 35.9688 4.83073 35.9688 3.64844C35.9688 3.03385 36.1406 2.48698 36.4844 2.00781C36.8333 1.52344 37.3307 1.14583 37.9766 0.875C38.6276 0.604167 39.3568 0.46875 40.1641 0.46875C40.9766 0.46875 41.7005 0.617188 42.3359 0.914062C42.9714 1.20573 43.4635 1.61979 43.8125 2.15625C44.1667 2.69271 44.3438 3.30208 44.3438 3.98438H42C42 3.46354 41.8359 3.0599 41.5078 2.77344C41.1797 2.48177 40.7188 2.33594 40.125 2.33594C39.5521 2.33594 39.1068 2.45833 38.7891 2.70312C38.4714 2.94271 38.3125 3.26042 38.3125 3.65625C38.3125 4.02604 38.4974 4.33594 38.8672 4.58594C39.2422 4.83594 39.7917 5.07031 40.5156 5.28906C41.849 5.6901 42.8203 6.1875 43.4297 6.78125C44.0391 7.375 44.3438 8.11458 44.3438 9C44.3438 9.98438 43.9714 10.7578 43.2266 11.3203C42.4818 11.8776 41.4792 12.1562 40.2188 12.1562C39.3438 12.1562 38.5469 11.9974 37.8281 11.6797C37.1094 11.3568 36.5599 10.9167 36.1797 10.3594C35.8047 9.80208 35.6172 9.15625 35.6172 8.42188H37.9688C37.9688 9.67708 38.7188 10.3047 40.2188 10.3047C40.776 10.3047 41.2109 10.1927 41.5234 9.96875C41.8359 9.73958 41.9922 9.42188 41.9922 9.01562ZM48.4922 1.46875V3.54688H49.9375V5.20312H48.4922V9.42188C48.4922 9.73438 48.5521 9.95833 48.6719 10.0938C48.7917 10.2292 49.0208 10.2969 49.3594 10.2969C49.6094 10.2969 49.8307 10.2786 50.0234 10.2422V11.9531C49.5807 12.0885 49.125 12.1562 48.6562 12.1562C47.0729 12.1562 46.2656 11.3568 46.2344 9.75781V5.20312H45V3.54688H46.2344V1.46875H48.4922ZM50.6094 7.69531C50.6094 6.85677 50.7708 6.10938 51.0938 5.45312C51.4167 4.79688 51.8802 4.28906 52.4844 3.92969C53.0938 3.57031 53.7995 3.39062 54.6016 3.39062C55.7422 3.39062 56.6719 3.73958 57.3906 4.4375C58.1146 5.13542 58.5182 6.08333 58.6016 7.28125L58.6172 7.85938C58.6172 9.15625 58.2552 10.1979 57.5312 10.9844C56.8073 11.7656 55.8359 12.1562 54.6172 12.1562C53.3984 12.1562 52.4245 11.7656 51.6953 10.9844C50.9714 10.2031 50.6094 9.14062 50.6094 7.79688V7.69531ZM52.8672 7.85938C52.8672 8.66146 53.0182 9.27604 53.3203 9.70312C53.6224 10.125 54.0547 10.3359 54.6172 10.3359C55.1641 10.3359 55.5911 10.1276 55.8984 9.71094C56.2057 9.28906 56.3594 8.61719 56.3594 7.69531C56.3594 6.90885 56.2057 6.29948 55.8984 5.86719C55.5911 5.4349 55.1589 5.21875 54.6016 5.21875C54.0495 5.21875 53.6224 5.4349 53.3203 5.86719C53.0182 6.29427 52.8672 6.95833 52.8672 7.85938ZM64.7578 5.66406C64.4505 5.6224 64.1797 5.60156 63.9453 5.60156C63.0911 5.60156 62.5312 5.89062 62.2656 6.46875V12H60.0078V3.54688H62.1406L62.2031 4.55469C62.6562 3.77865 63.2839 3.39062 64.0859 3.39062C64.3359 3.39062 64.5703 3.42448 64.7891 3.49219L64.7578 5.66406ZM69.5859 12.1562C68.3464 12.1562 67.3359 11.776 66.5547 11.0156C65.7786 10.2552 65.3906 9.24219 65.3906 7.97656V7.75781C65.3906 6.90885 65.5547 6.15104 65.8828 5.48438C66.2109 4.8125 66.6745 4.29688 67.2734 3.9375C67.8776 3.57292 68.5651 3.39062 69.3359 3.39062C70.4922 3.39062 71.401 3.75521 72.0625 4.48438C72.7292 5.21354 73.0625 6.2474 73.0625 7.58594V8.50781H67.6797C67.7526 9.0599 67.9714 9.5026 68.3359 9.83594C68.7057 10.1693 69.1719 10.3359 69.7344 10.3359C70.6042 10.3359 71.2839 10.0208 71.7734 9.39062L72.8828 10.6328C72.5443 11.112 72.0859 11.487 71.5078 11.7578C70.9297 12.0234 70.2891 12.1562 69.5859 12.1562ZM69.3281 5.21875C68.8802 5.21875 68.5156 5.36979 68.2344 5.67188C67.9583 5.97396 67.7812 6.40625 67.7031 6.96875H70.8438V6.78906C70.8333 6.28906 70.6979 5.90365 70.4375 5.63281C70.1771 5.35677 69.8073 5.21875 69.3281 5.21875Z" fill="#363636"/>
</svg>
