<svg width="55" height="13" viewBox="0 0 55 13" fill="none" xmlns="http://www.w3.org/2000/svg">
<path d="M9.26562 12H6.92188L2.35938 4.51562V12H0.015625V0.625H2.35938L6.92969 8.125V0.625H9.26562V12ZM10.8125 7.69531C10.8125 6.85677 10.974 6.10938 11.2969 5.45312C11.6198 4.79688 12.0833 4.28906 12.6875 3.92969C13.2969 3.57031 14.0026 3.39062 14.8047 3.39062C15.9453 3.39062 16.875 3.73958 17.5938 4.4375C18.3177 5.13542 18.7214 6.08333 18.8047 7.28125L18.8203 7.85938C18.8203 9.15625 18.4583 10.1979 17.7344 10.9844C17.0104 11.7656 16.0391 12.1562 14.8203 12.1562C13.6016 12.1562 12.6276 11.7656 11.8984 10.9844C11.1745 10.2031 10.8125 9.14062 10.8125 7.79688V7.69531ZM13.0703 7.85938C13.0703 8.66146 13.2214 9.27604 13.5234 9.70312C13.8255 10.125 14.2578 10.3359 14.8203 10.3359C15.3672 10.3359 15.7943 10.1276 16.1016 9.71094C16.4089 9.28906 16.5625 8.61719 16.5625 7.69531C16.5625 6.90885 16.4089 6.29948 16.1016 5.86719C15.7943 5.4349 15.362 5.21875 14.8047 5.21875C14.2526 5.21875 13.8255 5.4349 13.5234 5.86719C13.2214 6.29427 13.0703 6.95833 13.0703 7.85938ZM24.9609 5.66406C24.6536 5.6224 24.3828 5.60156 24.1484 5.60156C23.2943 5.60156 22.7344 5.89062 22.4688 6.46875V12H20.2109V3.54688H22.3438L22.4062 4.55469C22.8594 3.77865 23.487 3.39062 24.2891 3.39062C24.5391 3.39062 24.7734 3.42448 24.9922 3.49219L24.9609 5.66406ZM25.5469 7.71094C25.5469 6.39323 25.8411 5.34375 26.4297 4.5625C27.0234 3.78125 27.8333 3.39062 28.8594 3.39062C29.6823 3.39062 30.362 3.69792 30.8984 4.3125V0H33.1641V12H31.125L31.0156 11.1016C30.4531 11.8047 29.7292 12.1562 28.8438 12.1562C27.849 12.1562 27.0495 11.7656 26.4453 10.9844C25.8464 10.1979 25.5469 9.10677 25.5469 7.71094ZM27.8047 7.875C27.8047 8.66667 27.9427 9.27344 28.2188 9.69531C28.4948 10.1172 28.8958 10.3281 29.4219 10.3281C30.1198 10.3281 30.612 10.0339 30.8984 9.44531V6.10938C30.6172 5.52083 30.1302 5.22656 29.4375 5.22656C28.349 5.22656 27.8047 6.10938 27.8047 7.875ZM37.4062 7.99219V12H35.0625V0.625H39.5C40.3542 0.625 41.1042 0.78125 41.75 1.09375C42.401 1.40625 42.901 1.85156 43.25 2.42969C43.599 3.0026 43.7734 3.65625 43.7734 4.39062C43.7734 5.50521 43.3906 6.38542 42.625 7.03125C41.8646 7.67188 40.8099 7.99219 39.4609 7.99219H37.4062ZM37.4062 6.09375H39.5C40.1198 6.09375 40.5911 5.94792 40.9141 5.65625C41.2422 5.36458 41.4062 4.94792 41.4062 4.40625C41.4062 3.84896 41.2422 3.39844 40.9141 3.05469C40.5859 2.71094 40.1328 2.53385 39.5547 2.52344H37.4062V6.09375ZM54.3203 8.21094C54.2318 9.4349 53.7786 10.3984 52.9609 11.1016C52.1484 11.8047 51.0755 12.1562 49.7422 12.1562C48.2839 12.1562 47.1354 11.6667 46.2969 10.6875C45.4635 9.70312 45.0469 8.35417 45.0469 6.64062V5.94531C45.0469 4.85156 45.2396 3.88802 45.625 3.05469C46.0104 2.22135 46.5599 1.58333 47.2734 1.14062C47.9922 0.692708 48.8255 0.46875 49.7734 0.46875C51.0859 0.46875 52.1432 0.820312 52.9453 1.52344C53.7474 2.22656 54.2109 3.21354 54.3359 4.48438H51.9922C51.9349 3.75 51.7292 3.21875 51.375 2.89062C51.026 2.55729 50.4922 2.39062 49.7734 2.39062C48.9922 2.39062 48.4062 2.67188 48.0156 3.23438C47.6302 3.79167 47.4323 4.65885 47.4219 5.83594V6.69531C47.4219 7.92448 47.6068 8.82292 47.9766 9.39062C48.3516 9.95833 48.9401 10.2422 49.7422 10.2422C50.4661 10.2422 51.0052 10.0781 51.3594 9.75C51.7188 9.41667 51.9245 8.90365 51.9766 8.21094H54.3203Z" fill="#363636"/>
</svg>
