<svg width="1040" height="1030" viewBox="0 0 1040 1030" fill="none" xmlns="http://www.w3.org/2000/svg">
<path d="M885.572 516.305C682.038 398.895 353.128 398.895 150.907 516.305C-51.3147 633.715 -50.1406 824.334 153.485 941.836C357.111 1059.34 685.928 1059.36 888.15 941.836C1090.37 824.311 1089.2 633.807 885.572 516.305Z" fill="#F5F5F5"/>
<path d="M603.143 820.858C555.879 793.554 479.471 793.554 432.507 820.858C385.543 848.161 385.796 892.409 433.059 919.689C480.323 946.97 556.731 946.993 603.718 919.689C650.705 892.386 650.429 848.161 603.143 820.858Z" fill="#E0E0E0"/>
<path d="M432.484 687.908L411.764 675.937L419.868 671.332C421.192 670.566 422.291 669.465 423.055 668.139C423.819 666.814 424.222 665.311 424.222 663.781C424.222 662.251 423.819 660.749 423.055 659.423C422.291 658.098 421.192 656.997 419.868 656.23L393.831 641.174C389.853 638.872 385.338 637.66 380.743 637.66C376.147 637.66 371.633 638.872 367.655 641.174L105.577 792.173C104.259 792.944 103.166 794.047 102.406 795.371C101.646 796.696 101.246 798.197 101.246 799.724C101.246 801.251 101.646 802.752 102.406 804.076C103.166 805.401 104.259 806.504 105.577 807.275L131.569 822.515C135.566 824.845 140.11 826.072 144.737 826.072C149.364 826.072 153.908 824.845 157.905 822.515L182.792 808.15L203.281 820.19C206.468 822.033 210.085 823.003 213.767 823.003C217.449 823.003 221.066 822.033 224.254 820.19L432.553 699.787C433.58 699.17 434.429 698.295 435.016 697.251C435.603 696.206 435.908 695.026 435.901 693.828C435.894 692.629 435.575 691.453 434.976 690.416C434.377 689.378 433.518 688.513 432.484 687.908V687.908Z" fill="#E0E0E0"/>
<path d="M575.816 470.976C597.94 483.753 598.055 504.449 576.069 517.226C554.084 530.003 518.331 530.003 496.185 517.226C474.038 504.449 473.946 483.753 495.931 470.976C517.917 458.199 553.669 458.199 575.816 470.976Z" fill="#E0E0E0"/>
<path d="M831.724 727.183L722.326 664.035C721.59 663.608 720.979 662.995 720.554 662.257C720.129 661.52 719.906 660.684 719.906 659.833C719.906 658.982 720.129 658.146 720.554 657.409C720.979 656.672 721.59 656.059 722.326 655.632L818.809 599.597C819.547 599.169 820.385 598.943 821.238 598.943C822.091 598.943 822.929 599.169 823.667 599.597L935.505 664.173C936.242 664.597 936.854 665.207 937.279 665.943C937.704 666.678 937.928 667.513 937.928 668.363C937.928 669.212 937.704 670.047 937.279 670.783C936.854 671.518 936.242 672.129 935.505 672.553L841.508 727.183C840.026 728.055 838.337 728.515 836.616 728.515C834.896 728.515 833.207 728.055 831.724 727.183V727.183Z" fill="#E0E0E0"/>
<path d="M803.246 114.049L802.625 358.492L815.033 365.675L815.678 121.209L803.246 114.049Z" fill="#E0E0E0"/>
<path d="M815.678 121.209L815.033 365.675L825.854 359.39L826.429 127.424L815.678 121.209Z" fill="#F0F0F0"/>
<path opacity="0.2" d="M815.655 131.246L815.678 121.209L803.246 114.049L803.223 124.063L815.655 131.246Z" fill="black"/>
<path opacity="0.2" d="M815.655 131.246L824.357 126.227L815.678 121.209L815.655 131.246Z" fill="black"/>
<path d="M653.767 27.741L664.564 21.4561L663.92 265.899L653.123 272.184L653.767 27.741Z" fill="#F0F0F0"/>
<path d="M653.123 272.184L663.92 265.899L975.356 445.721L964.559 451.983L653.123 272.184Z" fill="#F5F5F5"/>
<path d="M641.382 6.28488L977.658 200.426L976.944 473.439L640.668 279.275L641.382 6.28488ZM964.559 451.983L965.203 207.609L653.744 27.718L653.054 272.184L964.49 451.983" fill="#E0E0E0"/>
<path d="M641.382 6.28489L652.179 0L988.455 194.164L977.658 200.426L641.382 6.28489Z" fill="#F5F5F5"/>
<path d="M977.658 200.426L988.455 194.164L987.741 467.154L976.944 473.439L977.658 200.426Z" fill="#F0F0F0"/>
<path d="M541.1 318.112H530.901C530.901 361.853 532.49 505.991 532.49 505.991C532.527 506.298 532.642 506.589 532.823 506.839C533.004 507.089 533.246 507.288 533.526 507.419C534.29 507.816 535.139 508.024 536 508.024C536.862 508.024 537.711 507.816 538.475 507.419C538.76 507.296 539.007 507.099 539.189 506.847C539.371 506.596 539.483 506.3 539.511 505.991V505.991C539.511 505.991 541.1 361.853 541.1 318.112Z" fill="#E6E6E6"/>
<path d="M520.541 298.245H510.32C501.572 343.551 495.885 486.147 495.885 486.147C495.916 486.455 496.028 486.75 496.21 487.001C496.392 487.251 496.638 487.449 496.921 487.574C497.689 487.961 498.537 488.162 499.396 488.162C500.256 488.162 501.103 487.961 501.871 487.574C502.152 487.448 502.394 487.249 502.572 486.998C502.75 486.747 502.858 486.453 502.884 486.147V486.147C502.884 486.147 512.622 342.906 520.541 298.245Z" fill="#E6E6E6"/>
<path d="M551.459 298.245H561.635C570.383 343.551 576.069 486.147 576.069 486.147C576.039 486.455 575.926 486.75 575.744 487.001C575.562 487.251 575.317 487.449 575.033 487.574C574.266 487.961 573.418 488.162 572.559 488.162C571.699 488.162 570.851 487.961 570.084 487.574C569.806 487.444 569.566 487.244 569.389 486.994C569.211 486.744 569.102 486.452 569.071 486.147C569.071 486.147 559.425 342.906 551.459 298.245Z" fill="#E6E6E6"/>
<path d="M590.895 296.955H589.813C587.741 290.993 582.723 285.307 574.711 280.679C553.255 268.294 518.585 268.294 497.267 280.679C489.324 285.283 484.351 290.97 482.349 296.932H481.336V303.102C481.336 311.229 486.792 319.217 497.451 325.548C518.907 337.934 553.577 337.934 574.895 325.548C585.554 319.355 590.872 311.252 590.826 303.125L590.895 296.955Z" fill="#F0F0F0"/>
<path d="M574.596 274.532C596.075 286.918 596.19 306.993 574.849 319.401C553.508 331.81 518.861 331.787 497.405 319.401C475.949 307.016 475.833 286.918 497.151 274.532C518.469 262.147 553.14 262.124 574.596 274.532Z" fill="#F5F5F5"/>
<path d="M562.878 256.184H509.123C509.123 273.865 517.364 288.829 519.92 293.272C519.92 293.479 520.127 293.663 520.242 293.871L520.38 294.078C521.365 295.452 522.648 296.585 524.133 297.393C527.796 299.266 531.852 300.243 535.966 300.243C540.08 300.243 544.136 299.266 547.799 297.393C549.677 296.42 551.194 294.871 552.127 292.973C554.844 288.414 562.878 273.612 562.878 256.184Z" fill="#EBEBEB"/>
<path d="M554.936 245.18C565.48 251.258 565.526 261.134 555.074 267.212C544.622 273.289 527.586 273.289 517.065 267.212C506.544 261.134 506.475 251.258 516.927 245.18C527.379 239.102 544.415 239.102 554.936 245.18Z" fill="#F5F5F5"/>
<path d="M533.088 249.255C533.009 237.749 530.358 226.407 525.33 216.058C523.482 212.95 522.24 209.521 521.669 205.951C521.416 202.36 523.396 198.285 526.941 197.571C528.35 197.402 529.777 197.637 531.057 198.249C532.337 198.86 533.416 199.823 534.17 201.024C535.648 203.454 536.626 206.154 537.048 208.967C539.695 221.422 541.905 234.291 540.248 246.814C540.157 248.268 539.862 249.702 539.373 251.073C539.116 251.709 538.699 252.268 538.163 252.696C537.626 253.123 536.988 253.405 536.311 253.514C535.859 253.555 535.404 253.491 534.981 253.327C534.557 253.164 534.178 252.904 533.871 252.57C533.305 251.56 533.034 250.411 533.088 249.255V249.255Z" fill="#E0E0E0"/>
<path d="M536.035 250.268C535.977 250.265 535.921 250.25 535.869 250.226C535.817 250.201 535.771 250.166 535.732 250.123C535.694 250.081 535.664 250.031 535.645 249.976C535.626 249.922 535.617 249.865 535.62 249.807C536.972 233.677 534.224 217.466 527.632 202.682C527.585 202.572 527.583 202.448 527.626 202.336C527.669 202.224 527.754 202.134 527.862 202.083C527.915 202.061 527.972 202.049 528.03 202.048C528.087 202.047 528.144 202.058 528.198 202.079C528.251 202.1 528.3 202.132 528.341 202.172C528.382 202.213 528.415 202.261 528.438 202.314C535.094 217.234 537.874 233.595 536.518 249.876C536.501 249.99 536.442 250.094 536.353 250.166C536.263 250.238 536.15 250.275 536.035 250.268Z" fill="white"/>
<path d="M506.936 230.63C504.633 229.18 501.871 227.591 501.134 224.898C500.89 223.679 501.022 222.415 501.511 221.273C502 220.13 502.824 219.163 503.874 218.498C504.942 217.855 506.129 217.436 507.364 217.266C508.598 217.096 509.855 217.178 511.057 217.508C513.457 218.192 515.707 219.325 517.687 220.846C521.16 223.288 524.261 226.219 526.895 229.548C530.01 233.507 532.474 237.936 534.193 242.671C535.357 245.729 536.236 248.889 536.818 252.109C537.209 254.665 537.969 258.901 535.321 260.558C534.735 260.902 534.067 261.084 533.387 261.084C532.708 261.084 532.04 260.902 531.454 260.558C530.297 259.828 529.384 258.77 528.829 257.519C528.297 256.273 527.836 254.997 527.448 253.698C525.741 248.685 522.951 244.111 519.275 240.299C515.595 236.559 511.447 233.31 506.936 230.63V230.63Z" fill="#EBEBEB"/>
<path d="M534.055 257.381C533.915 257.409 533.769 257.381 533.649 257.304C533.529 257.227 533.443 257.106 533.41 256.967C531.715 249.361 528.351 242.226 523.562 236.079C518.772 229.931 512.676 224.925 505.715 221.422C505.587 221.357 505.49 221.245 505.444 221.109C505.399 220.973 505.41 220.825 505.474 220.696C505.538 220.568 505.65 220.471 505.786 220.425C505.922 220.38 506.071 220.391 506.199 220.455C513.321 224.038 519.556 229.161 524.454 235.452C529.352 241.744 532.788 249.045 534.515 256.829C534.522 256.962 534.479 257.093 534.393 257.195C534.308 257.298 534.187 257.364 534.055 257.381Z" fill="white"/>
<path d="M559.54 225.036C561.451 223.033 563.661 220.823 563.684 218.13C563.616 216.883 563.17 215.686 562.405 214.699C561.64 213.712 560.592 212.981 559.402 212.604C558.206 212.261 556.953 212.164 555.719 212.318C554.484 212.472 553.294 212.875 552.219 213.502C550.067 214.757 548.175 216.414 546.648 218.383C543.959 221.635 541.735 225.246 540.041 229.111C538.029 233.729 536.777 238.642 536.334 243.66C535.969 246.917 535.915 250.201 536.173 253.468C536.449 256.023 536.772 260.374 539.741 261.249C540.399 261.424 541.091 261.42 541.747 261.238C542.403 261.056 542.998 260.702 543.471 260.213C544.422 259.23 545.041 257.974 545.244 256.622C545.466 255.281 545.597 253.928 545.635 252.57C546.032 247.279 547.605 242.143 550.239 237.537C552.776 232.979 555.903 228.776 559.54 225.036V225.036Z" fill="#EBEBEB"/>
<path d="M540.087 257.888C540.157 257.888 540.227 257.874 540.292 257.845C540.356 257.817 540.414 257.776 540.462 257.724C540.51 257.672 540.546 257.61 540.569 257.543C540.591 257.476 540.6 257.406 540.593 257.335C540.313 249.54 541.765 241.78 544.847 234.614C547.928 227.448 552.561 221.055 558.412 215.896C558.509 215.794 558.563 215.658 558.563 215.517C558.563 215.375 558.509 215.239 558.412 215.137C558.307 215.044 558.172 214.994 558.032 214.994C557.892 214.994 557.757 215.044 557.652 215.137C551.668 220.406 546.931 226.94 543.785 234.267C540.639 241.594 539.164 249.529 539.465 257.496C539.479 257.564 539.506 257.628 539.545 257.684C539.584 257.741 539.634 257.789 539.692 257.826C539.75 257.862 539.815 257.887 539.883 257.897C539.951 257.908 540.02 257.905 540.087 257.888V257.888Z" fill="white"/>
<path d="M742.009 653.399L732.455 658.947L732.478 647.896L742.009 653.399Z" fill="#E6E6E6"/>
<path d="M732.87 540.455L825.969 594.233L732.87 540.455Z" fill="#CFCFCF"/>
<path d="M742.009 653.399L825.762 701.744V712.817L835.707 718.573L836.075 588.478L722.878 523.119L722.51 653.191L732.478 658.947V647.896L742.009 653.399ZM825.854 636.409L732.754 582.653L732.869 540.455L825.969 594.233L825.854 636.409ZM825.715 690.141L732.616 636.386L732.708 594.371V594.256L825.831 648.011L825.715 690.141Z" fill="#EBEBEB"/>
<path d="M732.593 636.386L732.708 594.325V594.21L825.831 647.965L825.692 690.141L732.593 636.386Z" fill="#F5F5F5"/>
<path d="M732.754 582.653L732.869 540.455L825.969 594.233L825.854 636.409L732.754 582.653Z" fill="#F5F5F5"/>
<path d="M836.075 588.478L934.907 531.039L934.539 661.134L835.684 718.573L836.075 588.478Z" fill="#E6E6E6"/>
<path d="M836.075 588.478L722.855 523.119L821.687 465.681L934.907 531.039L836.075 588.478Z" fill="#F5F5F5"/>
<path d="M855.321 513.082C839.344 503.873 813.514 503.873 797.629 513.082C781.744 522.291 781.836 537.278 797.813 546.486C813.79 555.695 839.644 555.695 855.505 546.486C871.367 537.278 871.298 522.314 855.321 513.082Z" fill="#E0E0E0"/>
<path d="M859.88 474.82L827.649 475.764L795.419 474.82C794.015 496.553 798.274 518.722 804.121 529.542C805.499 532.326 807.735 534.594 810.498 536.011C815.805 538.723 821.679 540.137 827.638 540.137C833.597 540.137 839.471 538.723 844.777 536.011C847.582 534.563 849.826 532.222 851.154 529.358C857.071 518.4 861.261 496.46 859.88 474.82Z" fill="#37474F"/>
<path d="M850.372 461.652C862.987 468.927 863.056 480.737 850.533 488.012C838.009 495.286 817.612 495.286 804.996 488.012C792.38 480.737 792.334 468.927 804.858 461.652C817.382 454.377 837.779 454.354 850.372 461.652Z" fill="#455A64"/>
<path d="M845.399 464.529C855.229 470.216 855.275 479.424 845.514 485.111C840.013 487.913 833.927 489.373 827.753 489.373C821.579 489.373 815.493 487.913 809.992 485.111C800.162 479.424 800.092 470.216 809.877 464.529C815.381 461.737 821.466 460.281 827.638 460.281C833.81 460.281 839.895 461.737 845.399 464.529V464.529Z" fill="#2E3440"/>
<path d="M825.002 475.741C827.584 477.9 830.642 479.415 833.924 480.159C837.206 480.904 840.619 480.857 843.88 480.023C847.024 479.071 849.882 477.349 852.193 475.013C854.505 472.677 856.197 469.802 857.117 466.647C853.308 464.834 849.817 462.416 846.78 459.488C851.611 458.275 856.686 458.45 861.422 459.994C862.731 457.936 863.516 455.588 863.709 453.156C863.902 450.724 863.496 448.282 862.527 446.043C857.035 443.594 850.852 443.17 845.077 444.846C847.471 442.749 850.275 441.171 853.31 440.212C856.345 439.253 859.546 438.934 862.711 439.275C863.165 430.041 861.723 420.811 858.475 412.155C846.481 412.8 834.832 417.957 830.849 421.686C830.665 425.98 831.115 430.278 832.185 434.44C830.632 433.651 829.305 432.481 828.326 431.04C827.348 429.598 826.751 427.933 826.59 426.199C819.085 428.063 815.885 431.816 814.711 434.67C815.791 440.01 818.243 444.977 821.825 449.082C814.757 446.941 811.903 439.091 811.903 439.091C804.996 455.528 806.354 474.129 825.002 475.741Z" fill="#90CAF9"/>
<path opacity="0.2" d="M825.002 475.741C827.584 477.9 830.642 479.415 833.924 480.159C837.206 480.904 840.619 480.857 843.88 480.023C847.024 479.071 849.882 477.349 852.193 475.013C854.505 472.677 856.197 469.802 857.117 466.647C853.308 464.834 849.817 462.416 846.78 459.488C851.611 458.275 856.686 458.45 861.422 459.994C862.731 457.936 863.516 455.588 863.709 453.156C863.902 450.724 863.496 448.282 862.527 446.043C857.035 443.594 850.852 443.17 845.077 444.846C847.471 442.749 850.275 441.171 853.31 440.212C856.345 439.253 859.546 438.934 862.711 439.275C863.165 430.041 861.723 420.811 858.475 412.155C846.481 412.8 834.832 417.957 830.849 421.686C830.665 425.98 831.115 430.278 832.185 434.44C830.632 433.651 829.305 432.481 828.326 431.04C827.348 429.598 826.751 427.933 826.59 426.199C819.085 428.063 815.885 431.816 814.711 434.67C815.791 440.01 818.243 444.977 821.825 449.082C814.757 446.941 811.903 439.091 811.903 439.091C804.996 455.528 806.354 474.129 825.002 475.741Z" fill="black"/>
<path d="M824.587 477.514C824.497 477.508 824.408 477.484 824.326 477.444C824.245 477.404 824.172 477.348 824.112 477.279C824.052 477.211 824.006 477.131 823.977 477.045C823.948 476.959 823.937 476.868 823.943 476.777C825.094 461.606 833.75 436.604 854.423 415.954C854.555 415.823 854.733 415.749 854.918 415.749C855.104 415.749 855.282 415.823 855.413 415.954C855.545 416.085 855.618 416.263 855.618 416.449C855.618 416.635 855.545 416.813 855.413 416.944C835.016 437.318 826.452 461.951 825.324 476.8C825.328 476.897 825.311 476.993 825.275 477.083C825.238 477.172 825.184 477.253 825.114 477.321C825.045 477.388 824.962 477.44 824.871 477.473C824.781 477.506 824.684 477.52 824.587 477.514V477.514Z" fill="#F5F5F5"/>
<path d="M830.32 483.868C827.915 485.834 825.078 487.203 822.042 487.863C819.007 488.523 815.858 488.455 812.854 487.664C809.849 486.874 807.075 485.384 804.757 483.315C802.439 481.247 800.643 478.659 799.517 475.764C802.96 474.186 806.112 472.038 808.841 469.41C804.28 468.33 799.515 468.472 795.028 469.824C793.672 468.089 792.783 466.036 792.445 463.86C792.106 461.684 792.33 459.458 793.094 457.393C798.326 455.243 804.125 454.894 809.577 456.403C804.722 452.61 798.61 450.8 792.472 451.338C791.428 443.202 792.215 434.936 794.774 427.142C806.285 427.833 817.52 432.576 821.456 435.914C821.897 439.69 821.742 443.512 820.996 447.24C822.382 446.585 823.559 445.558 824.396 444.274C825.234 442.989 825.698 441.498 825.739 439.965C832.898 441.692 836.144 445.053 837.41 447.586C836.729 452.284 834.725 456.691 831.632 460.294C833.643 459.58 835.467 458.42 836.966 456.901C838.465 455.382 839.601 453.543 840.288 451.522C847.678 466.049 847.563 482.44 830.32 483.868Z" fill="#90CAF9"/>
<path d="M830.711 485.502C830.547 485.498 830.389 485.436 830.267 485.326C830.145 485.216 830.065 485.066 830.044 484.904C828.064 471.712 818.533 449.796 797.928 431.494C797.802 431.364 797.731 431.191 797.731 431.01C797.731 430.829 797.802 430.656 797.928 430.527C797.991 430.461 798.066 430.409 798.149 430.373C798.232 430.338 798.322 430.319 798.412 430.319C798.502 430.319 798.592 430.338 798.675 430.373C798.758 430.409 798.833 430.461 798.895 430.527C819.73 449.082 829.445 471.344 831.448 484.765C831.475 484.948 831.43 485.134 831.323 485.284C831.215 485.435 831.054 485.537 830.872 485.571L830.711 485.502Z" fill="white"/>
<path d="M395.212 38.1007C393.416 31.7928 380.616 19.6834 367.885 20.0518C366.657 20.0892 365.443 20.3303 364.294 20.7655L116.904 161.565C113.294 163.663 110.293 166.663 108.194 170.271C106.095 173.88 104.971 177.972 104.933 182.147V717.445C104.933 731.073 120.656 744.081 135.436 737.819C135.76 737.72 136.075 737.597 136.38 737.45L383.885 596.42C387.517 594.35 390.536 591.356 392.634 587.741C394.733 584.125 395.837 580.019 395.833 575.839V40.6791C395.835 39.7824 395.622 38.8983 395.212 38.1007V38.1007Z" fill="#455A64"/>
<path d="M139.465 238.688C139.466 236.6 140.021 234.55 141.072 232.746C142.124 230.942 143.635 229.45 145.451 228.42L375.229 97.6806C376.129 97.1637 377.149 96.8926 378.187 96.8945C379.224 96.8964 380.243 97.1712 381.141 97.6914C382.039 98.2115 382.785 98.9586 383.303 99.8578C383.821 100.757 384.093 101.777 384.092 102.814V534.515C384.087 536.602 383.53 538.65 382.479 540.453C381.428 542.256 379.92 543.749 378.107 544.783L148.305 675.706C147.406 676.218 146.389 676.484 145.354 676.479C144.32 676.474 143.305 676.199 142.41 675.679C141.516 675.16 140.773 674.415 140.257 673.519C139.74 672.623 139.467 671.607 139.465 670.573V238.688Z" fill="#90CAF9"/>
<path opacity="0.2" d="M139.465 238.688C139.466 236.6 140.021 234.55 141.072 232.746C142.124 230.942 143.635 229.45 145.451 228.42L375.229 97.6806C376.129 97.1637 377.149 96.8926 378.187 96.8945C379.224 96.8964 380.243 97.1712 381.141 97.6914C382.039 98.2115 382.785 98.9586 383.303 99.8578C383.821 100.757 384.093 101.777 384.092 102.814V534.515C384.087 536.602 383.53 538.65 382.479 540.453C381.428 542.256 379.92 543.749 378.107 544.783L148.305 675.706C147.406 676.218 146.389 676.484 145.354 676.479C144.32 676.474 143.305 676.199 142.41 675.679C141.516 675.16 140.773 674.415 140.257 673.519C139.74 672.623 139.467 671.607 139.465 670.573V238.688Z" fill="black"/>
<path opacity="0.3" d="M104.933 182.124V717.445C104.933 731.073 120.656 744.081 135.436 737.819C134.548 738.145 133.593 738.252 132.655 738.131C131.716 738.009 130.82 737.662 130.045 737.119C129.269 736.576 128.636 735.854 128.2 735.014C127.764 734.173 127.537 733.24 127.54 732.294V196.904C127.551 192.248 128.937 187.699 131.523 183.827L107.442 171.741C105.818 174.963 104.96 178.516 104.933 182.124V182.124Z" fill="black"/>
<path opacity="0.1" d="M367.977 20.0288C366.749 20.0662 365.535 20.3073 364.386 20.7425L116.904 161.565C112.796 163.925 109.497 167.472 107.442 171.741L131.661 183.827C133.711 180.742 136.455 178.18 139.672 176.345L387.154 35.5453C387.847 35.1661 388.61 34.9312 389.396 34.8548C390.183 34.7785 390.976 34.8622 391.729 35.101C392.482 35.3399 393.179 35.7288 393.778 36.2444C394.376 36.7599 394.864 37.3914 395.212 38.1007V38.1007C393.508 31.7698 380.708 19.7756 367.977 20.0288Z" fill="white"/>
<path d="M292.282 123.925C294.009 122.935 295.459 123.718 295.459 125.698C295.399 126.794 295.082 127.861 294.534 128.812C293.986 129.764 293.223 130.574 292.305 131.177L243.73 159.263C242.003 160.276 240.599 159.424 240.599 157.422C240.659 156.337 240.973 155.282 241.517 154.342C242.061 153.402 242.819 152.604 243.73 152.012L292.282 123.925Z" fill="#2E3440"/>
<path d="M231.252 159.263C232.979 158.25 234.383 159.056 234.406 161.059C234.343 162.149 234.027 163.209 233.484 164.156C232.94 165.103 232.184 165.91 231.275 166.515C229.526 167.505 228.098 166.699 228.098 164.696C228.157 163.606 228.473 162.545 229.022 161.601C229.57 160.656 230.334 159.855 231.252 159.263Z" fill="#2E3440"/>
<path d="M262.331 119.85C265.808 117.847 268.616 119.436 268.616 123.442C268.51 125.62 267.889 127.743 266.805 129.636C265.72 131.528 264.203 133.137 262.377 134.331C258.901 136.357 256.023 134.699 256 130.717C256.13 128.536 256.77 126.416 257.87 124.528C258.969 122.641 260.498 121.038 262.331 119.85Z" fill="#2E3440"/>
<path d="M262.354 623.816C269.422 619.741 275.131 622.987 275.154 631.114C274.93 635.557 273.66 639.885 271.448 643.746C269.236 647.606 266.144 650.889 262.423 653.329C255.356 657.404 249.508 654.066 249.485 645.94C249.739 641.5 251.037 637.182 253.273 633.338C255.509 629.494 258.62 626.231 262.354 623.816Z" fill="#2E3440"/>
<path d="M440.587 129.934C438.953 124.201 427.442 113.22 415.793 113.542C414.685 113.577 413.59 113.787 412.547 114.164L188.018 241.98C184.742 243.881 182.018 246.603 180.112 249.876C178.207 253.15 177.187 256.863 177.151 260.65V746.567C177.151 758.952 191.425 770.763 204.777 764.984C205.08 764.899 205.373 764.783 205.652 764.639L430.297 636.616C433.591 634.738 436.33 632.021 438.235 628.742C440.139 625.463 441.142 621.738 441.14 617.945V132.19C441.128 131.406 440.939 130.635 440.587 129.934V129.934Z" fill="#90CAF9"/>
<path opacity="0.2" d="M177.036 260.558V746.567C177.036 758.953 191.31 770.763 204.662 764.984C203.856 765.276 202.991 765.37 202.141 765.257C201.291 765.144 200.48 764.828 199.778 764.336C199.076 763.844 198.502 763.189 198.106 762.429C197.71 761.668 197.503 760.823 197.503 759.965V274.095C197.512 269.866 198.769 265.733 201.117 262.216L179.269 251.35C177.849 254.215 177.086 257.361 177.036 260.558Z" fill="white"/>
<path opacity="0.4" d="M415.793 113.542C414.685 113.577 413.589 113.787 412.547 114.164L188.018 241.98C184.276 244.108 181.267 247.318 179.385 251.188L201.37 262.17C203.215 259.333 205.699 256.968 208.622 255.263L433.244 127.471C433.879 127.107 434.582 126.877 435.31 126.797C436.037 126.716 436.773 126.786 437.473 127.002C438.172 127.218 438.82 127.575 439.376 128.052C439.931 128.528 440.383 129.114 440.702 129.773C438.953 124.201 427.442 113.22 415.793 113.542Z" fill="white"/>
<path opacity="0.3" d="M440.587 129.934C438.953 124.201 427.442 113.22 415.793 113.542C414.685 113.577 413.59 113.787 412.547 114.164L188.018 241.98C184.742 243.881 182.018 246.603 180.112 249.876C178.207 253.15 177.187 256.863 177.151 260.65V746.567C177.151 758.952 191.425 770.763 204.777 764.984C205.08 764.899 205.373 764.783 205.652 764.639L430.297 636.616C433.591 634.738 436.33 632.021 438.235 628.742C440.139 625.463 441.142 621.738 441.14 617.945V132.19C441.128 131.406 440.939 130.635 440.587 129.934V129.934Z" fill="white"/>
<path d="M362.383 185.416C364.524 184.173 366.274 185.163 366.297 187.718V211.384C366.222 212.735 365.831 214.049 365.155 215.22C364.479 216.392 363.538 217.389 362.406 218.13L216.173 302.458C214.009 303.701 212.282 302.711 212.259 300.155V276.466C212.332 275.115 212.723 273.801 213.399 272.629C214.075 271.457 215.017 270.46 216.15 269.721L362.383 185.416Z" fill="#90CAF9"/>
<g opacity="0.7">
<path opacity="0.7" d="M362.383 185.416C364.524 184.173 366.274 185.163 366.297 187.718V211.384C366.222 212.735 365.831 214.049 365.155 215.22C364.479 216.392 363.538 217.389 362.406 218.13L216.173 302.458C214.009 303.701 212.282 302.711 212.259 300.155V276.466C212.332 275.115 212.723 273.801 213.399 272.629C214.075 271.457 215.017 270.46 216.15 269.721L362.383 185.416Z" fill="white"/>
</g>
<g opacity="0.5">
<path opacity="0.5" d="M420.651 160.322C425.669 157.422 429.744 159.747 429.859 165.502C429.81 167.79 429.301 170.045 428.363 172.132L429.882 175.931L425.992 176.299C424.626 178.279 422.852 179.944 420.789 181.18C415.793 184.081 411.718 181.755 411.695 176C411.846 172.866 412.735 169.811 414.292 167.087C415.848 164.362 418.027 162.044 420.651 160.322V160.322Z" fill="white"/>
</g>
<g opacity="0.5">
<path opacity="0.5" d="M387.454 195.914C388.605 195.269 389.549 195.776 389.549 197.111C389.508 197.83 389.3 198.529 388.94 199.153C388.58 199.777 388.079 200.307 387.477 200.702C386.326 201.347 385.405 200.702 385.405 199.505C385.443 198.788 385.648 198.09 386.003 197.466C386.359 196.843 386.856 196.311 387.454 195.914Z" fill="white"/>
<path opacity="0.5" d="M397.813 189.951C398.964 189.283 399.885 189.813 399.908 191.125C399.865 191.846 399.653 192.547 399.289 193.171C398.925 193.795 398.42 194.324 397.813 194.717C396.685 195.384 395.741 194.855 395.741 193.519C395.785 192.804 395.996 192.11 396.355 191.49C396.715 190.871 397.214 190.344 397.813 189.951Z" fill="white"/>
<path opacity="0.5" d="M402.141 171.373L400.599 187.373L384.691 196.558L383.033 182.423L402.141 171.373Z" fill="white"/>
</g>
<path d="M213.203 493.076C213.206 491.24 213.693 489.437 214.614 487.849C215.536 486.26 216.86 484.943 218.452 484.029L420.536 368.944C421.333 368.489 422.237 368.253 423.155 368.26C424.074 368.267 424.974 368.517 425.764 368.985C426.555 369.452 427.207 370.121 427.655 370.923C428.104 371.724 428.332 372.63 428.317 373.548V471.045C428.309 472.883 427.818 474.686 426.893 476.274C425.967 477.862 424.64 479.179 423.045 480.092L220.915 595.2C220.118 595.655 219.214 595.891 218.296 595.884C217.377 595.877 216.477 595.627 215.687 595.159C214.896 594.691 214.244 594.023 213.796 593.221C213.347 592.42 213.119 591.514 213.134 590.596L213.203 493.076Z" fill="#90CAF9"/>
<path opacity="0.5" d="M213.203 493.076C213.206 491.24 213.693 489.437 214.614 487.849C215.536 486.26 216.86 484.943 218.452 484.029L420.536 368.944C421.333 368.489 422.237 368.253 423.155 368.26C424.074 368.267 424.974 368.517 425.764 368.985C426.555 369.452 427.207 370.121 427.655 370.923C428.104 371.724 428.332 372.63 428.317 373.548V471.045C428.309 472.883 427.818 474.686 426.893 476.274C425.967 477.862 424.64 479.179 423.045 480.092L220.915 595.2C220.118 595.655 219.214 595.891 218.296 595.884C217.377 595.877 216.477 595.627 215.687 595.159C214.896 594.691 214.244 594.023 213.796 593.221C213.347 592.42 213.119 591.514 213.134 590.596L213.203 493.076Z" fill="white"/>
<path d="M301.123 449.404L301.376 539.142L223.287 584.219L223.033 494.504L301.123 449.404Z" fill="#90CAF9"/>
<g opacity="0.2">
<path opacity="0.2" d="M301.123 449.404L301.376 539.142L223.287 584.219L223.033 494.504L301.123 449.404Z" fill="white"/>
</g>
<g opacity="0.6">
<path opacity="0.6" d="M352.461 457.024L352.484 462.711L310.101 487.114L310.078 481.427L352.461 457.024Z" fill="white"/>
<path opacity="0.6" d="M404.42 417.496L404.443 423.16L310.078 477.652L310.055 471.965L404.42 417.496Z" fill="white"/>
<path opacity="0.6" d="M368.737 494.642L368.76 500.328L310.101 533.986L310.078 528.322L368.737 494.642Z" fill="white"/>
<path opacity="0.6" d="M383.264 476.317L383.287 481.98L310.078 524.524L310.055 518.837L383.264 476.317Z" fill="white"/>
<path opacity="0.6" d="M404.397 408.012L404.42 413.675L310.032 468.167V462.504L404.397 408.012Z" fill="white"/>
<path opacity="0.6" d="M360.772 417.243L360.795 425.416L310.009 454.745L309.986 446.596L360.772 417.243Z" fill="white"/>
</g>
<path d="M263.989 498.947C272.576 493.997 279.551 498.003 279.597 507.856C279.312 513.231 277.76 518.463 275.067 523.124C272.375 527.785 268.618 531.744 264.104 534.676C255.517 539.649 248.518 535.666 248.495 525.813C248.781 520.431 250.333 515.193 253.025 510.525C255.717 505.856 259.474 501.889 263.989 498.947V498.947Z" fill="#E0E0E0"/>
<path d="M252.478 483.614L275.5 470.377V490.636C271.474 490.075 267.382 491 263.989 493.238C259.467 495.961 255.55 499.581 252.478 503.873V483.614Z" fill="#E0E0E0"/>
<path d="M213.203 363.488C213.206 361.652 213.693 359.849 214.614 358.26C215.536 356.672 216.86 355.354 218.452 354.44L420.536 239.447C421.333 238.992 422.237 238.756 423.155 238.763C424.074 238.771 424.974 239.021 425.764 239.488C426.555 239.956 427.207 240.625 427.655 241.426C428.104 242.228 428.332 243.134 428.317 244.052V341.548C428.309 343.386 427.818 345.19 426.893 346.778C425.967 348.366 424.64 349.683 423.045 350.596L220.915 465.704C220.118 466.159 219.214 466.395 218.296 466.388C217.377 466.381 216.477 466.13 215.687 465.663C214.896 465.195 214.244 464.526 213.796 463.725C213.347 462.923 213.119 462.018 213.134 461.099L213.203 363.488Z" fill="#90CAF9"/>
<path opacity="0.1" d="M213.203 363.488C213.206 361.652 213.693 359.849 214.614 358.26C215.536 356.672 216.86 355.354 218.452 354.44L420.536 239.447C421.333 238.992 422.237 238.756 423.155 238.763C424.074 238.771 424.974 239.021 425.764 239.488C426.555 239.956 427.207 240.625 427.655 241.426C428.104 242.228 428.332 243.134 428.317 244.052V341.548C428.309 343.386 427.818 345.19 426.893 346.778C425.967 348.366 424.64 349.683 423.045 350.596L220.915 465.704C220.118 466.159 219.214 466.395 218.296 466.388C217.377 466.381 216.477 466.13 215.687 465.663C214.896 465.195 214.244 464.526 213.796 463.725C213.347 462.923 213.119 462.018 213.134 461.099L213.203 363.488Z" fill="black"/>
<path d="M213.203 619.511C213.199 617.673 213.683 615.867 214.605 614.278C215.527 612.688 216.855 611.372 218.452 610.463L420.536 495.378C421.333 494.923 422.237 494.687 423.155 494.694C424.074 494.702 424.974 494.952 425.764 495.419C426.555 495.887 427.207 496.556 427.655 497.357C428.104 498.159 428.332 499.065 428.317 499.983V597.456C428.314 599.295 427.825 601.101 426.899 602.69C425.973 604.278 424.643 605.594 423.045 606.504L220.915 721.612C220.118 722.067 219.214 722.303 218.296 722.296C217.377 722.288 216.477 722.038 215.687 721.571C214.896 721.103 214.244 720.434 213.796 719.633C213.347 718.831 213.119 717.925 213.134 717.007L213.203 619.511Z" fill="#90CAF9"/>
<path opacity="0.5" d="M213.203 619.511C213.199 617.673 213.683 615.867 214.605 614.278C215.527 612.688 216.855 611.372 218.452 610.463L420.536 495.378C421.333 494.923 422.237 494.687 423.155 494.694C424.074 494.702 424.974 494.952 425.764 495.419C426.555 495.887 427.207 496.556 427.655 497.357C428.104 498.159 428.332 499.065 428.317 499.983V597.456C428.314 599.295 427.825 601.101 426.899 602.69C425.973 604.278 424.643 605.594 423.045 606.504L220.915 721.612C220.118 722.067 219.214 722.303 218.296 722.296C217.377 722.288 216.477 722.038 215.687 721.571C214.896 721.103 214.244 720.434 213.796 719.633C213.347 718.831 213.119 717.925 213.134 717.007L213.203 619.511Z" fill="white"/>
<path d="M301.123 575.931L301.376 665.669L223.287 710.745L223.033 621.007L301.123 575.931Z" fill="#90CAF9"/>
<g opacity="0.2">
<path opacity="0.2" d="M301.123 575.931L301.376 665.669L223.287 710.745L223.033 621.007L301.123 575.931Z" fill="white"/>
</g>
<g opacity="0.6">
<path opacity="0.6" d="M352.461 583.551L352.484 589.214L310.101 613.617L310.078 607.954L352.461 583.551Z" fill="white"/>
<path opacity="0.6" d="M404.42 544L404.443 549.663L310.078 604.155L310.055 598.492L404.42 544Z" fill="white"/>
<path opacity="0.6" d="M368.737 621.168L368.76 626.832L310.101 660.512L310.078 654.826L368.737 621.168Z" fill="white"/>
<path opacity="0.6" d="M383.264 602.843L383.287 608.507L310.078 651.027L310.055 645.364L383.264 602.843Z" fill="white"/>
<path opacity="0.6" d="M404.397 534.515L404.42 540.201L310.032 594.671V589.007L404.397 534.515Z" fill="white"/>
<path opacity="0.6" d="M360.772 543.77L360.795 551.943L310.009 581.272L309.986 573.099L360.772 543.77Z" fill="white"/>
</g>
<path d="M287.977 616.932C289.658 615.965 290.947 616.932 290.694 619.004L286.251 655.54C286 657.263 285.386 658.914 284.45 660.383C283.513 661.851 282.275 663.104 280.818 664.058L245.572 684.409C242.855 685.974 240.553 685.03 240.138 682.106L235.534 650.82C235.491 649.793 235.716 648.773 236.189 647.86C236.661 646.948 237.364 646.174 238.228 645.617L248.772 639.54V646.883L251.534 645.318V638.112L274.74 624.714V632.081L277.502 630.469V623.102L287.977 616.932Z" fill="#E0E0E0"/>
<path d="M263.022 611.223C270.918 606.619 277.387 610.325 277.41 619.419V630.377L274.648 631.989V621.007C274.648 613.663 269.422 610.671 263.137 614.377C259.779 616.576 256.987 619.535 254.987 623.015C252.987 626.495 251.835 630.398 251.626 634.406V645.387L248.864 646.953V635.994C249.107 631.042 250.516 626.218 252.977 621.913C255.437 617.609 258.879 613.946 263.022 611.223V611.223Z" fill="white"/>
<path d="M231.183 379.58C231.182 377.489 231.736 375.435 232.788 373.627C233.839 371.819 235.351 370.323 237.169 369.289L466.97 238.55C467.871 238.038 468.891 237.771 469.927 237.777C470.963 237.783 471.98 238.061 472.875 238.583C473.77 239.105 474.513 239.853 475.028 240.752C475.543 241.651 475.813 242.67 475.81 243.706V354.532C475.805 356.619 475.248 358.667 474.197 360.47C473.146 362.273 471.638 363.767 469.825 364.8L240.046 495.747C239.147 496.264 238.127 496.535 237.089 496.533C236.051 496.531 235.032 496.256 234.134 495.736C233.236 495.216 232.491 494.469 231.973 493.569C231.455 492.67 231.182 491.651 231.183 490.613V379.58Z" fill="#90CAF9"/>
<path opacity="0.6" d="M231.183 379.58C231.182 377.489 231.736 375.435 232.788 373.627C233.839 371.819 235.351 370.323 237.169 369.289L466.97 238.55C467.871 238.038 468.891 237.771 469.927 237.777C470.963 237.783 471.98 238.061 472.875 238.583C473.77 239.105 474.513 239.853 475.028 240.752C475.543 241.651 475.813 242.67 475.81 243.706V354.532C475.805 356.619 475.248 358.667 474.197 360.47C473.146 362.273 471.638 363.767 469.825 364.8L240.046 495.747C239.147 496.264 238.127 496.535 237.089 496.533C236.051 496.531 235.032 496.256 234.134 495.736C233.236 495.216 232.491 494.469 231.973 493.569C231.455 492.67 231.182 491.651 231.183 490.613V379.58Z" fill="white"/>
<path d="M331.143 330.06L331.419 432.046L242.671 483.292L242.372 381.306L331.143 330.06Z" fill="#90CAF9"/>
<g opacity="0.2">
<path opacity="0.2" d="M331.143 330.06L331.419 432.046L242.671 483.292L242.372 381.306L331.143 330.06Z" fill="white"/>
</g>
<path d="M313.969 361.853V381.974C313.865 383.871 313.315 385.717 312.363 387.361C311.411 389.006 310.083 390.402 308.49 391.436C305.474 393.186 303.01 391.781 302.987 388.305V368.737L313.969 361.853Z" fill="#E0E0E0"/>
<path d="M323.684 397.145C323.269 402.749 322.352 408.304 320.944 413.744L305.658 422.584C306.095 418.21 306.51 413.813 306.924 409.439C301.392 417.054 295.231 424.193 288.507 430.78C285.876 433.356 282.938 435.599 279.759 437.456L251.281 453.94C250.641 453.4 250.237 452.632 250.153 451.799L278.861 435.246C281.676 433.589 284.301 431.628 286.688 429.399C294.595 422.234 301.852 414.384 308.374 405.94L323.684 397.145Z" fill="#E0E0E0"/>
<path d="M318.228 359.367C318.55 362.728 319.172 375.183 319.931 378.014C320.691 380.846 321.658 383.632 322.671 386.463C323.684 389.927 324.028 393.553 323.684 397.145L308.374 405.986C301.852 414.43 294.595 422.28 286.688 429.445C284.301 431.674 281.676 433.635 278.861 435.292L250.176 451.845C249.868 448.511 250.626 445.166 252.34 442.291C254.65 438.886 257.495 435.877 260.766 433.381C264.822 429.824 268.615 425.977 272.115 421.871C281.854 410.659 293.088 394.797 296.818 372.604C298.613 371.545 300.754 370.302 303.033 368.806V388.374C303.033 391.85 305.52 393.255 308.536 391.505C310.13 390.471 311.457 389.075 312.409 387.431C313.361 385.786 313.911 383.94 314.015 382.043V361.922C315.511 361.001 316.938 360.104 318.228 359.367Z" fill="white"/>
<g opacity="0.6">
<path opacity="0.6" d="M389.503 338.694L389.526 345.163L341.341 372.904L341.318 366.458L389.503 338.694Z" fill="white"/>
<path opacity="0.6" d="M448.576 293.755L448.599 300.201L341.318 362.13L341.295 355.684L448.576 293.755Z" fill="white"/>
<path opacity="0.6" d="M408.012 381.468V387.914L341.341 426.176L341.318 419.73L408.012 381.468Z" fill="white"/>
<path opacity="0.6" d="M424.518 360.633L424.541 367.079L341.318 415.424L341.295 408.978L424.518 360.633Z" fill="white"/>
<path opacity="0.6" d="M448.553 282.981V289.427L341.272 351.355V344.909L448.553 282.981Z" fill="white"/>
<path opacity="0.6" d="M398.964 293.479L398.987 302.78L341.249 336.115L341.203 326.837L398.964 293.479Z" fill="white"/>
</g>
<g opacity="0.8">
<path opacity="0.8" d="M247.736 300.639L241.405 326.976L235.442 330.429L231.62 318.826L227.73 334.872L221.744 338.325L215.275 319.378L221.008 316.063L225.036 328.219L229.157 311.367L234.291 308.397L238.297 320.714L242.418 303.724L247.736 300.639Z" fill="white"/>
<path opacity="0.8" d="M255.333 296.242L255.402 318.895L249.808 322.118L249.738 299.488L255.333 296.242Z" fill="white"/>
<path opacity="0.8" d="M267.005 289.059C269.133 287.683 271.607 286.933 274.141 286.895L272.461 292.65C270.537 292.581 268.635 293.069 266.982 294.055C264.679 295.413 263.805 296.794 263.805 297.922C263.805 301.399 274.993 292.351 275.016 300.708C275.016 304.645 272.161 309.686 266.314 313.071C263.867 314.738 260.936 315.547 257.98 315.373L259.799 309.617C262.079 309.849 264.371 309.314 266.314 308.098C268.616 306.74 269.514 305.473 269.514 304.391C269.514 300.8 258.302 309.894 258.279 301.445C258.279 297.393 261.134 292.443 267.005 289.059Z" fill="white"/>
<path opacity="0.8" d="M296.311 272.599L296.357 295.229L290.786 298.475L290.763 289.635L283.166 294.032L283.189 302.849L277.618 306.072L277.549 283.419L283.143 280.196L283.166 288.714L290.74 284.317L290.717 275.822L296.311 272.599Z" fill="white"/>
<path opacity="0.8" d="M305.842 267.096L305.888 284.662L315.304 279.229V284.294L300.317 292.95L300.248 270.319L305.842 267.096Z" fill="white"/>
<path opacity="0.8" d="M323.062 257.151L323.108 279.804L317.537 283.027L317.468 260.374L323.062 257.151Z" fill="white"/>
<path opacity="0.8" d="M334.688 249.968C336.83 248.582 339.32 247.832 341.871 247.804L340.167 253.537C338.244 253.496 336.347 253.99 334.688 254.964C332.386 256.299 331.534 257.681 331.534 258.832C331.534 262.308 342.723 253.26 342.746 261.617C342.746 265.554 339.891 270.573 334.02 273.957C331.577 275.632 328.644 276.442 325.687 276.259L327.505 270.504C329.796 270.737 332.099 270.194 334.043 268.961C336.346 267.649 337.243 266.36 337.243 265.278C337.243 261.663 326.009 270.78 325.986 262.354C325.986 258.256 328.841 253.353 334.688 249.968Z" fill="white"/>
<path opacity="0.8" d="M360.795 235.373V240.437L354.763 243.937L354.809 261.502L349.238 264.702L349.192 247.137L343.137 250.636L343.114 245.571L360.795 235.373Z" fill="white"/>
<path opacity="0.8" d="M431.01 198.101L431.033 207.401L373.295 240.737L373.272 231.459L431.01 198.101Z" fill="white"/>
<path opacity="0.8" d="M415.931 219.419L415.954 228.696L373.295 253.33L373.272 244.052L415.931 219.419Z" fill="white"/>
</g>
<path d="M252.708 543.033C256.733 543.58 260.82 542.656 264.219 540.432C268.734 537.699 272.649 534.081 275.73 529.796V550.032L252.708 563.269V543.033Z" fill="#E0E0E0"/>
<path d="M275.5 490.636C280.979 491.695 284.708 496.806 284.708 504.978C284.329 514.022 281.17 522.729 275.661 529.911C272.58 534.196 268.665 537.814 264.15 540.547C260.751 542.771 256.664 543.695 252.639 543.148C247.16 542.043 243.546 536.955 243.431 528.806C243.826 519.804 246.977 511.142 252.455 503.989C255.527 499.696 259.444 496.076 263.966 493.353C267.35 491.069 271.452 490.103 275.5 490.636V490.636ZM264.15 534.676C268.664 531.744 272.421 527.785 275.113 523.124C277.806 518.463 279.358 513.232 279.644 507.856C279.644 498.003 272.737 494.043 264.035 498.947C259.52 501.889 255.763 505.856 253.071 510.525C250.379 515.193 248.827 520.431 248.541 525.813C248.541 535.666 255.563 539.626 264.15 534.676Z" fill="white"/>
<path d="M554.406 910.458C552.703 914.026 547.292 917.364 541.376 918.308C535.459 919.252 529.428 918.009 523.488 917.18C514.649 915.938 505.698 915.706 496.806 916.489C491.301 917.209 485.759 917.609 480.208 917.686C474.611 917.735 469.144 916.002 464.599 912.737C461.457 910.271 459.361 906.712 458.728 902.768C458.479 905.324 458.888 907.901 459.915 910.254C460.943 912.607 462.555 914.658 464.599 916.213C469.149 919.469 474.613 921.202 480.208 921.163C485.759 921.085 491.301 920.686 496.806 919.965C505.698 919.182 514.649 919.414 523.488 920.656C529.428 921.485 535.874 923.188 541.905 922.199C547.937 921.209 553.232 917.917 554.936 914.348L554.406 910.458Z" fill="#2E3440"/>
<path d="M489.6 899.891C494.573 899.891 492.754 892.524 497.497 887.597C495.563 887.712 493.629 887.735 491.695 887.735C487.459 893.859 486.262 899.891 489.6 899.891Z" fill="white"/>
<path d="M499.96 899.522C504.979 899.522 503.667 890.728 508.593 885.594C507.47 885.991 506.325 886.321 505.163 886.584C504.196 886.814 503.206 886.976 502.216 887.114C497.819 893.329 496.507 899.522 499.96 899.522Z" fill="white"/>
<path d="M549.249 882.671C548.92 881.048 548.002 879.604 546.671 878.619L519.759 877.951C516.882 881.554 512.994 884.216 508.593 885.594C503.667 890.728 504.979 899.522 499.96 899.522C496.553 899.522 497.819 893.329 502.262 887.114C500.728 887.344 499.193 887.505 497.658 887.597C492.916 892.524 494.734 899.891 489.762 899.891C486.4 899.891 487.598 893.859 491.857 887.735H488.081C486.93 887.735 485.779 887.735 484.651 887.551C474.752 895.378 473.9 903.873 475.189 917.18C476.892 917.49 478.616 917.675 480.346 917.732C485.897 917.655 491.439 917.255 496.944 916.535C505.836 915.752 514.787 915.984 523.626 917.226C529.566 918.055 535.597 919.344 541.514 918.354C547.431 917.364 552.841 914.072 554.544 910.504L549.249 882.671Z" fill="#455A64"/>
<path d="M484.513 887.505C480.052 886.791 475.506 886.791 471.045 887.505C465.589 888.84 460.363 892.593 458.936 898.049C458.561 899.554 458.49 901.12 458.728 902.653C459.361 906.596 461.457 910.156 464.599 912.621C467.662 914.936 471.255 916.447 475.051 917.019C473.762 903.827 474.613 895.332 484.513 887.505Z" fill="white"/>
<path d="M518.976 870.285V883.246C518.976 883.946 519.114 884.64 519.383 885.286C519.652 885.933 520.045 886.52 520.542 887.015C521.038 887.509 521.627 887.9 522.275 888.166C522.923 888.432 523.617 888.567 524.317 888.564H537.946C540.215 888.565 542.396 887.685 544.028 886.108C545.66 884.532 546.616 882.383 546.694 880.115L547.016 870.285H518.976Z" fill="#9C5A5A"/>
<path d="M608.668 864.506C607.926 866.093 606.781 867.458 605.347 868.464C603.913 869.469 602.24 870.082 600.495 870.239C596.866 870.5 593.248 869.606 590.159 867.683C585.554 864.714 583.667 860.063 580.49 855.85C577.158 851.782 573.382 848.099 569.232 844.869C564.762 841.565 561.088 837.301 558.481 832.391C557.836 830.927 557.409 829.376 557.215 827.787C556.809 830.772 557.247 833.81 558.481 836.558C561.089 841.461 564.763 845.717 569.232 849.013C573.382 852.251 577.158 855.942 580.49 860.017C583.667 864.207 585.485 868.881 590.159 871.85C593.254 873.756 596.87 874.642 600.495 874.383C602.238 874.23 603.91 873.622 605.345 872.62C606.779 871.618 607.925 870.257 608.668 868.673C609.216 866.305 609.379 863.865 609.151 861.445C609.164 862.485 609.001 863.521 608.668 864.506V864.506Z" fill="#2E3440"/>
<path d="M578.095 836.098C577.593 836.755 577.355 837.576 577.428 838.4C577.514 838.778 577.694 839.128 577.952 839.418C578.209 839.708 578.536 839.928 578.901 840.058C579.429 840.199 579.984 840.202 580.512 840.065C581.041 839.927 581.525 839.655 581.917 839.275C582.707 838.522 583.417 837.689 584.035 836.788C585.826 834.495 588.216 832.743 590.941 831.724C592.277 831.243 593.67 830.941 595.085 830.826L591.724 827.741C588.928 827.889 586.214 828.739 583.833 830.212C581.451 831.684 579.478 833.732 578.095 836.167V836.098Z" fill="white"/>
<path d="M578.809 825.37C575.656 826.844 573.035 829.256 571.304 832.276C570.8 832.932 570.562 833.754 570.636 834.578C570.719 834.961 570.898 835.315 571.155 835.61C571.413 835.904 571.742 836.127 572.11 836.259C572.641 836.401 573.199 836.403 573.732 836.266C574.264 836.129 574.752 835.857 575.149 835.476C575.932 834.723 576.634 833.89 577.244 832.99C578.857 830.913 580.969 829.277 583.384 828.235C585.799 827.192 588.438 826.777 591.056 827.027L587.718 823.988C584.678 823.631 581.598 824.109 578.809 825.37V825.37Z" fill="white"/>
<path d="M585.508 821.986C582.45 819.007 578.867 816.619 574.941 814.941C570.13 813.099 564.144 813.376 560.438 816.944C559.076 818.374 558.073 820.107 557.513 822C556.953 823.893 556.85 825.893 557.215 827.833C557.409 829.422 557.836 830.973 558.481 832.437C559.36 834.34 560.482 836.119 561.819 837.732C563.108 826.106 573.169 820.673 585.508 821.986Z" fill="white"/>
<path d="M608.921 853.157C608.986 849.216 608.085 845.32 606.297 841.807L599.759 834.901L595.154 830.665C593.74 830.78 592.346 831.082 591.01 831.563C588.285 832.581 585.895 834.334 584.104 836.627C583.486 837.528 582.777 838.361 581.986 839.114C581.594 839.494 581.11 839.766 580.582 839.903C580.053 840.041 579.498 840.038 578.97 839.896C578.605 839.767 578.278 839.546 578.021 839.257C577.763 838.967 577.583 838.617 577.497 838.239C577.424 837.415 577.663 836.594 578.164 835.937C579.547 833.502 581.52 831.454 583.902 829.981C586.283 828.509 588.997 827.659 591.793 827.511L590.895 826.889C588.277 826.639 585.638 827.054 583.223 828.096C580.808 829.139 578.696 830.775 577.082 832.852C576.473 833.751 575.771 834.585 574.987 835.338C574.591 835.719 574.103 835.99 573.571 836.128C573.038 836.265 572.48 836.262 571.949 836.121C571.58 835.989 571.252 835.765 570.994 835.471C570.736 835.177 570.558 834.822 570.475 834.44C570.401 833.616 570.639 832.794 571.143 832.138C572.756 829.308 575.159 827.008 578.057 825.52C580.956 824.032 584.225 823.42 587.465 823.758H587.35L585.347 821.94C573.008 820.627 562.947 826.06 561.658 837.64C563.903 840.257 566.384 842.662 569.071 844.823C573.221 848.053 576.997 851.736 580.328 855.804C583.505 860.017 585.324 864.668 589.997 867.637C593.087 869.56 596.705 870.454 600.334 870.193C602.079 870.036 603.752 869.423 605.186 868.418C606.62 867.412 607.765 866.047 608.507 864.46C608.835 863.489 608.998 862.47 608.99 861.445C609.11 858.683 609.087 855.916 608.921 853.157V853.157Z" fill="#455A64"/>
<path d="M585.324 832.645L586.084 846.573C594.878 851.637 604.11 848.875 607.172 845.675L607.747 832.645H585.324Z" fill="#9C5A5A"/>
<path d="M602.613 531.914C601.86 530.42 601.407 528.793 601.278 527.125L600.541 515.177L515.362 520.656C514.233 526.619 513.059 533.94 511.977 542.204C542.419 550.154 574.729 546.485 602.613 531.914V531.914Z" fill="#9C5A5A"/>
<path d="M600.956 483.73L619.074 518.745L602.613 546.371L620.823 575.148L648.311 532.489C650.163 529.597 651.371 526.341 651.856 522.941C652.341 519.541 652.089 516.077 651.12 512.783C646.426 496.14 640.453 479.884 633.255 464.161L600.956 483.73Z" fill="#9C5A5A"/>
<path d="M586.544 416.092C607.402 412.224 619.327 419.177 636.962 466.348C629.756 482.463 599.206 488.449 599.206 488.449L586.544 416.092Z" fill="#90CAF9"/>
<path opacity="0.3" d="M586.544 416.092C607.402 412.224 619.327 419.177 636.962 466.348C629.756 482.463 599.206 488.449 599.206 488.449L586.544 416.092Z" fill="black"/>
<path d="M547.5 421.709L524.731 426.199C519.69 435.407 514.556 444.063 509.537 453.272C505.739 460.178 501.848 467.568 502.124 475.465C502.339 479.683 503.729 483.757 506.138 487.227C508.546 490.697 511.876 493.425 515.753 495.102L513.128 526.181C548.881 537.117 592.599 527.517 602.199 519.275C605.008 506.245 607.517 492.386 610.349 479.355C612.44 470.948 613.727 462.361 614.193 453.709C614.669 444.939 612.581 436.22 608.185 428.616L608.046 428.386C605.052 423.893 600.816 420.367 595.854 418.238C590.892 416.108 585.418 415.467 580.098 416.391L547.5 421.709Z" fill="#90CAF9"/>
<path d="M603.949 534.101C603.439 533.413 602.992 532.681 602.613 531.914C574.755 546.462 542.482 550.13 512.069 542.204C505.669 589.951 500.144 670.78 503.528 724.075C506.337 786.233 517.779 874.06 517.779 874.06C532.674 878.527 543.839 875.787 548.052 872.564C553.025 810.981 563.96 768.783 555.511 728.058C561.151 699.58 564.72 663.827 564.72 663.827L569.025 726.722L583.575 837.226C587.667 839.332 592.242 840.319 596.839 840.089C601.435 839.858 605.889 838.418 609.75 835.914C620.34 772.673 624.3 729.83 615.045 698.452C629.249 594.763 630.032 568.219 603.949 534.101Z" fill="#455A64"/>
<path opacity="0.3" d="M571.051 651.419L578.855 618.659C588.064 617.163 602.199 611.2 609.681 598.699C598.889 607.162 585.616 611.846 571.903 612.029L564.789 663.85L566.308 685.974L566.907 677.917C567.594 668.989 568.98 660.13 571.051 651.419V651.419Z" fill="black"/>
<path d="M378.13 384.161L401.036 443.442C402.506 447.25 404.937 450.612 408.091 453.202C411.246 455.792 415.018 457.522 419.039 458.222L458.176 465.128C462.731 460.293 465.802 454.252 467.026 447.723C468.251 441.194 467.576 434.451 465.082 428.294C453.223 428.121 441.406 426.826 429.79 424.426C429.79 424.426 405.042 394.314 394.705 378.774L402.072 354.348C402.411 353.252 402.521 352.097 402.394 350.956C402.268 349.816 401.907 348.713 401.336 347.718L397.376 340.812C396.349 339.037 394.713 337.696 392.772 337.036L387.062 335.079C385.773 334.642 384.408 334.471 383.05 334.578C381.693 334.685 380.371 335.067 379.166 335.701L370.464 340.305C369.914 340.591 369.455 341.025 369.137 341.558C368.82 342.091 368.658 342.701 368.668 343.321V343.321C368.677 343.925 368.849 344.515 369.165 345.029C369.481 345.544 369.929 345.964 370.464 346.245L373.733 347.925L378.337 355.568C375.256 359.688 373.573 364.686 373.536 369.831C373.499 374.975 375.108 379.997 378.13 384.161V384.161Z" fill="#9C5A5A"/>
<path d="M521.163 425.715C507.074 426.383 485.917 428.708 465.151 428.294C467.645 434.451 468.32 441.194 467.095 447.723C465.871 454.252 462.8 460.293 458.245 465.128L507.143 473.669C512.304 474.483 517.583 473.348 521.954 470.484C526.324 467.62 529.472 463.233 530.786 458.176C532.305 451.983 533.94 446.78 534.861 440.748C535.152 438.822 535.009 436.854 534.443 434.99C533.878 433.126 532.903 431.411 531.591 429.971C530.279 428.53 528.662 427.401 526.858 426.665C525.054 425.929 523.108 425.604 521.163 425.715V425.715Z" fill="#90CAF9"/>
<path opacity="0.3" d="M521.163 425.715C507.074 426.383 485.917 428.708 465.151 428.294C467.645 434.451 468.32 441.194 467.095 447.723C465.871 454.252 462.8 460.293 458.245 465.128L507.143 473.669C512.304 474.483 517.583 473.348 521.954 470.484C526.324 467.62 529.472 463.233 530.786 458.176C532.305 451.983 533.94 446.78 534.861 440.748C535.152 438.822 535.009 436.854 534.443 434.99C533.878 433.126 532.903 431.411 531.591 429.971C530.279 428.53 528.662 427.401 526.858 426.665C525.054 425.929 523.108 425.604 521.163 425.715V425.715Z" fill="black"/>
<path d="M519.759 360.449C516.367 354.003 514.822 346.745 515.292 339.476C515.564 335.854 516.706 332.351 518.622 329.264C520.538 326.178 523.171 323.6 526.297 321.75C532.674 318.342 541.537 319.448 545.98 325.203C557.721 319.355 572.432 319.263 583.344 326.538C588.801 330.235 593.21 335.277 596.146 341.178C599.082 347.078 600.446 353.637 600.104 360.219C599.621 367.747 596.858 375.16 597.802 382.665C598.285 387.085 600.104 391.551 598.884 395.833C598.309 397.602 597.377 399.234 596.145 400.628C594.914 402.022 593.409 403.148 591.724 403.937C588.432 405.663 580.743 405.203 577.105 405.963C566.009 416.046 552.058 412.271 543.195 403.269C534.331 394.268 519.759 360.449 519.759 360.449Z" fill="#37474F"/>
<path d="M517.456 370.463L510.527 382.504L518.101 385.312L517.456 370.463Z" fill="#804040"/>
<path d="M516.674 365.099C517.779 354.532 520.864 344.564 527.747 339.499C525.903 352.642 528.695 366.017 535.644 377.324C536.324 373.835 538.117 370.66 540.754 368.276C542.036 367.04 543.638 366.187 545.379 365.812C547.12 365.438 548.931 365.558 550.608 366.158C552.898 367.25 554.673 369.19 555.557 371.568C556.49 373.855 556.742 376.362 556.284 378.789C555.826 381.216 554.677 383.459 552.975 385.248C551.274 387.038 549.091 388.298 546.69 388.877C544.29 389.456 541.773 389.329 539.442 388.512C540.396 393.206 542.696 397.521 546.06 400.93C549.425 404.339 553.708 406.696 558.389 407.712C564.565 408.972 570.977 408.363 576.806 405.963L579.661 420.213C568.15 432.576 548.259 424.265 548.259 424.265L545.727 410.199C522.913 411.557 520.795 411.165 518.285 398.688C516.213 387.618 515.671 376.316 516.674 365.099V365.099Z" fill="#9C5A5A"/>
<path opacity="0.3" d="M567.183 349.744C570.397 340.553 576.845 332.844 585.324 328.058C590.181 331.854 594.051 336.766 596.604 342.377C599.157 347.988 600.318 354.132 599.989 360.288C599.505 367.816 596.743 375.229 597.687 382.734C598.17 387.154 599.989 391.62 598.769 395.902C598.194 397.671 597.262 399.303 596.03 400.697C594.798 402.091 593.294 403.217 591.609 404.006C588.317 405.732 580.628 405.272 576.99 406.032C576.507 406.469 576.023 406.837 575.517 407.229C571.663 399.866 568.637 392.098 566.492 384.069C563.341 372.808 563.582 360.869 567.183 349.744Z" fill="black"/>
<path d="M573.514 341.824C575.301 335.91 578.927 330.719 583.865 327.006C588.804 323.292 594.798 321.25 600.976 321.176C607.154 321.101 613.195 322.998 618.222 326.592C623.248 330.185 626.998 335.287 628.927 341.157C635.833 361.876 618.176 384.115 622.02 405.617C623.402 413.399 627.523 420.489 628.927 428.247C629.773 432.75 629.689 437.378 628.679 441.846C627.669 446.315 625.755 450.529 623.054 454.23C620.354 457.931 616.925 461.04 612.978 463.365C609.031 465.691 604.65 467.184 600.104 467.753C605.054 462.296 605.146 453.94 602.406 447.033C599.667 440.127 594.556 434.624 590.205 428.616C572.478 404.535 564.881 370.279 573.514 341.824Z" fill="#37474F"/>
</svg>
